<?xml version="1.0" encoding="UTF-8" standalone="no"?>
<!-- Created with Inkscape (http://www.inkscape.org/) -->

<svg
   xmlns:dc="http://purl.org/dc/elements/1.1/"
   xmlns:cc="http://creativecommons.org/ns#"
   xmlns:rdf="http://www.w3.org/1999/02/22-rdf-syntax-ns#"
   xmlns:svg="http://www.w3.org/2000/svg"
   xmlns="http://www.w3.org/2000/svg"
   xmlns:sodipodi="http://sodipodi.sourceforge.net/DTD/sodipodi-0.dtd"
   xmlns:inkscape="http://www.inkscape.org/namespaces/inkscape"
   id="svg2"
   version="1.1"
   inkscape:version="0.48.4 r9939"
   xml:space="preserve"
   width="96"
   height="96"
   viewBox="0 0 95.999998 96"
   sodipodi:docname="tikz-tak-cal.svg"><metadata
     id="metadata8"><rdf:RDF><cc:Work
         rdf:about=""><dc:format>image/svg+xml</dc:format><dc:type
           rdf:resource="http://purl.org/dc/dcmitype/StillImage" /><dc:title /></cc:Work></rdf:RDF></metadata><defs
     id="defs6"><linearGradient
       id="ButtonShadow"
       gradientTransform="scale(1.0058652,0.994169)"
       x1="45.447727"
       y1="92.539597"
       x2="45.447727"
       y2="7.0165396"
       gradientUnits="userSpaceOnUse"><stop
         style="stop-color:#000000;stop-opacity:1;"
         offset="0"
         id="stop3750" /><stop
         style="stop-color:#000000;stop-opacity:0.58823532;"
         offset="1"
         id="stop3752" /></linearGradient></defs><sodipodi:namedview
     pagecolor="#ffffff"
     bordercolor="#666666"
     borderopacity="1"
     objecttolerance="10"
     gridtolerance="10"
     guidetolerance="10"
     inkscape:pageopacity="0"
     inkscape:pageshadow="2"
     inkscape:window-width="2507"
     inkscape:window-height="1416"
     id="namedview4"
     showgrid="false"
     inkscape:zoom="1.4564708"
     inkscape:cx="375.93294"
     inkscape:cy="114.16038"
     inkscape:window-x="53"
     inkscape:window-y="24"
     inkscape:window-maximized="1"
     inkscape:current-layer="layer1" /><g
     inkscape:groupmode="layer"
     id="layer1"
     inkscape:label="shadows"
     style="display:inline"><path
       transform="translate(-7.411261e-4,-1.5)"
       sodipodi:type="inkscape:offset"
       inkscape:radius="0.89889657"
       inkscape:original="M 12 5 C 6.5057413 4.8226625 2.2688151 10.254913 3 15.53125 C 3.0309044 38.997769 2.9228708 62.441688 3.03125 85.90625 C 3.406939 91.180153 8.768912 94.680368 13.78125 94 C 37.49672 93.96909 61.192738 94.07714 84.90625 93.96875 C 90.180153 93.593056 93.680368 88.231088 93 83.21875 C 92.969096 59.836613 93.077128 36.473929 92.96875 13.09375 C 92.593061 7.819847 87.231088 4.3196317 82.21875 5 C 77.866124 5.0650149 73.487523 4.8715384 69.15625 5.09375 C 67.963875 6.4331658 67.682915 5.2248289 66.25 5 C 53.948789 5.0209559 41.640647 4.9581688 29.34375 5.03125 C 28.049941 6.0756153 27.841446 5.6834995 26.46875 5 L 12 5 z M 28 11.5625 C 31.752455 13.588735 26.611704 18.804219 26.5625 13.40625 C 26.671315 12.511624 27.639226 12.271287 28 11.5625 z M 68 11.5625 C 71.752455 13.588735 66.611704 18.804219 66.5625 13.40625 C 66.671315 12.511624 67.639226 12.271287 68 11.5625 z "
       style="opacity:0.07999998;fill:#000000;fill-opacity:1;fill-rule:nonzero;stroke:none;display:inline"
       id="path3758"
       d="M 12,4.09375 C 5.958559,3.9197191 1.4013336,9.7548505 2.125,15.53125 l -0.03125,0 c 0.0309,23.462972 -0.077155,46.904914 0.03125,70.375 a 0.89898646,0.89898646 0 0 0 0,0.0625 c 0.4135931,5.805998 6.1890583,9.610267 11.65625,8.9375 0.04186,-0.0052 0.08318,0.0057 0.125,0 23.670234,-0.03037 47.322706,0.07697 71,-0.03125 a 0.89898646,0.89898646 0 0 0 0.0625,0 c 5.805997,-0.413599 9.610267,-6.189058 8.9375,-11.65625 -0.0052,-0.04186 0.0057,-0.08318 0,-0.125 -0.03035,-23.336851 0.07696,-46.655962 -0.03125,-70 a 0.89898646,0.89898646 0 0 0 0,-0.0625 C 93.461407,7.2252516 87.685942,3.4209829 82.21875,4.09375 c -0.04121,6.156e-4 -0.08378,-5.689e-4 -0.125,0 C 77.816605,4.1527751 73.471998,3.9644816 69.125,4.1875 A 0.89898646,0.89898646 0 0 0 68.5,4.5 C 68.258195,4.7716239 68.114165,4.8160828 68.125,4.8125 67.945266,4.7390723 67.326189,4.2742446 66.375,4.125 A 0.89898646,0.89898646 0 0 0 66.25,4.09375 C 53.952869,4.1146989 41.647271,4.0518794 29.34375,4.125 a 0.89898646,0.89898646 0 0 0 -0.5625,0.21875 C 28.488372,4.5801621 28.293078,4.7029151 28.1875,4.75 28.081922,4.7970849 28.092979,4.7854347 28.0625,4.78125 28.001543,4.7728806 27.606489,4.5517268 26.875,4.1875 A 0.89898646,0.89898646 0 0 0 26.46875,4.09375 l -14.4375,0 -0.03125,0 z m 16.09375,8.6875 c 0.226923,0.244044 0.358574,0.498158 0.375,0.75 0.02604,0.39918 -0.161138,0.861966 -0.40625,1.125 -0.114331,0.12269 -0.223886,0.196155 -0.28125,0.21875 0.02231,0.0073 -0.27871,-0.3392 -0.3125,-1.40625 0.01928,-0.126056 0.06772,-0.162919 0.3125,-0.375 0.07441,-0.06447 0.212783,-0.230306 0.3125,-0.3125 z m 40,0 c 0.226923,0.244044 0.358574,0.498158 0.375,0.75 0.02604,0.39918 -0.161138,0.861966 -0.40625,1.125 -0.114331,0.12269 -0.223886,0.196155 -0.28125,0.21875 0.02232,0.0073 -0.27871,-0.3392 -0.3125,-1.40625 0.01928,-0.126056 0.06772,-0.162919 0.3125,-0.375 0.07441,-0.06447 0.212783,-0.230306 0.3125,-0.3125 z" /><path
       inkscape:connector-curvature="0"
       style="opacity:0.1;fill:#000000;fill-opacity:1;fill-rule:nonzero;stroke:none;display:inline"
       d="M 11.999259,3.5 C 6.5049999,3.3226625 2.2680739,8.742553 2.9992589,14.01889 c 0.0309,23.466519 -0.06188,46.936164 0.0465,70.400726 0.375689,5.273903 5.713196,8.760752 10.7255331,8.080384 23.71547,-0.03091 47.434066,0.06189 71.147578,-0.0465 5.273903,-0.375694 8.760752,-5.7132 8.080384,-10.725538 -0.0309,-23.382137 0.06187,-46.767399 -0.0465,-70.147578 C 92.577069,6.306481 87.239563,2.8196317 82.227225,3.5 77.874599,3.565015 73.486786,3.3715384 69.155513,3.59375 67.963138,4.9331658 67.682178,3.7248289 66.249263,3.5 53.948052,3.520956 41.63991,3.458169 29.343013,3.53125 28.049204,4.5756153 27.840709,4.1834995 26.468013,3.5 c -4.822917,0 -9.645833,0 -14.468749,0 z m 15.999999,6.5625 c 3.752455,2.026235 -1.381779,7.249395 -1.430983,1.851426 0.108815,-0.894626 1.070209,-1.142639 1.430983,-1.851426 z m 40,0 c 3.752455,2.026235 -1.381779,7.249395 -1.430983,1.851426 0.108815,-0.894626 1.070209,-1.142639 1.430983,-1.851426 z"
       id="path3744" /><path
       inkscape:connector-curvature="0"
       style="opacity:0.2;fill:#000000;fill-opacity:1;fill-rule:nonzero;stroke:none;display:inline"
       d="m 11.999259,4.46875 c -4.4371951,0 -8.0312501,3.5940551 -8.0312501,8.03125 l 0,71 c 0,4.437195 3.594055,8.03125 8.0312501,8.03125 l 71.999999,0 c 4.437195,0 8.03125,-3.594055 8.03125,-8.03125 l 0,-71 c 0,-4.4371949 -3.594055,-8.03125 -8.03125,-8.03125 l -14.25,0 A 1.0420122,1.0420122 0 0 0 68.718008,5.5 l 0,3.5625 a 1.0420122,1.0420122 0 0 0 0.46875,0.875 c 0.737994,0.488062 1.28125,1.413642 1.28125,2.5625 0,1.717559 -1.174525,2.96875 -2.46875,2.96875 -1.294225,0 -2.46875,-1.251191 -2.46875,-2.96875 0,-1.148858 0.543256,-2.074438 1.28125,-2.5625 a 1.0420122,1.0420122 0 0 0 0.46875,-0.875 l 0,-3.5625 a 1.0420122,1.0420122 0 0 0 -1.03125,-1.03125 l -36.5,0 A 1.0420122,1.0420122 0 0 0 28.718008,5.5 l 0,3.5625 a 1.0420122,1.0420122 0 0 0 0.46875,0.875 c 0.737994,0.488062 1.28125,1.413642 1.28125,2.5625 0,1.717559 -1.174525,2.96875 -2.46875,2.96875 -1.294225,0 -2.46875,-1.251191 -2.46875,-2.96875 0,-1.148858 0.543256,-2.074438 1.28125,-2.5625 a 1.0420122,1.0420122 0 0 0 0.46875,-0.875 l 0,-3.5625 a 1.0420122,1.0420122 0 0 0 -1.03125,-1.03125 l -14.249999,0 z"
       id="path3734" /><path
       inkscape:connector-curvature="0"
       style="opacity:0.3;fill:#000000;fill-opacity:1;fill-rule:nonzero;stroke:none;display:inline"
       d="m 11.999259,5.5 c -3.8780001,0 -7.0000001,3.122 -7.0000001,7 l 0,71 c 0,3.878 3.122,7 7.0000001,7 l 71.999999,0 c 3.878,0 7,-3.122 7,-7 l 0,-71 c 0,-3.878 -3.122,-7 -7,-7 l -14.25,0 0,3.5625 c 1.046496,0.692085 1.75,1.958291 1.75,3.4375 0,2.209139 -1.563432,4 -3.5,4 -1.936568,0 -3.5,-1.790861 -3.5,-4 0,-1.479209 0.703504,-2.745415 1.75,-3.4375 l 0,-3.5625 -36.5,0 0,3.5625 c 1.046496,0.692085 1.75,1.958291 1.75,3.4375 0,2.209139 -1.563432,4 -3.5,4 -1.936568,0 -3.5,-1.790861 -3.5,-4 0,-1.479209 0.703504,-2.745415 1.75,-3.4375 l 0,-3.5625 -14.249999,0 z"
       id="rect3713" /><path
       inkscape:connector-curvature="0"
       id="path3693"
       d="m 11.999259,5.5 c -3.3240001,0 -6.0000001,2.676 -6.0000001,6 l 0,72 c 0,3.324 2.676,6 6.0000001,6 l 71.999999,0 c 3.324,0 6,-2.676 6,-6 l 0,-72 c 0,-3.324 -2.676,-6 -6,-6 l -14,0 0,2.5625 c 1.193791,0.692085 2,1.958291 2,3.4375 0,2.209139 -1.790861,4 -4,4 -2.209139,0 -4,-1.790861 -4,-4 0,-1.479209 0.806209,-2.745415 2,-3.4375 l 0,-2.5625 -36,0 0,2.5625 c 1.193791,0.692085 2,1.958291 2,3.4375 0,2.209139 -1.790861,4 -4,4 -2.209139,0 -4,-1.790861 -4,-4 0,-1.479209 0.806209,-2.745415 2,-3.4375 l 0,-2.5625 -13.999999,0 z"
       style="opacity:1;fill:#ffffff;fill-opacity:1;fill-rule:nonzero;stroke:none;display:inline" /></g><g
     id="g10"
     inkscape:groupmode="layer"
     inkscape:label="logo-tikz-tak"
     transform="matrix(1.25,0,0,-1.25,0,95.999999)"
     style="display:inline"><g
       transform="matrix(1,0,0,-1,0.996,3.141)"
       style="font-size:9.96259975px;font-variant:normal;font-weight:normal;writing-mode:lr-tb;fill:#000000;fill-opacity:1;fill-rule:nonzero;stroke:none;font-family:CMR10;-inkscape-font-specification:CMR10"
       id="text12" /><g
       transform="matrix(1,0,0,-1,16.614,3.141)"
       style="font-size:9.96259975px;font-variant:normal;font-weight:normal;writing-mode:lr-tb;fill:#000000;fill-opacity:1;fill-rule:nonzero;stroke:none;font-family:CMR10;-inkscape-font-specification:CMR10"
       id="text20" /><g
       id="g3550"
       transform="translate(34.948315,-3.3078652)"><g
         id="g3476"><path
           style="font-size:medium;font-style:normal;font-variant:normal;font-weight:normal;font-stretch:normal;writing-mode:lr-tb;fill:#000000;fill-opacity:1;fill-rule:nonzero;stroke:none;font-family:cmr10;-inkscape-font-specification:cmr10"
           d="m 78.295504,5.68655 q -0.06129,0 -0.06129,0.061293 0,0.030647 0.01362,0.044267 1.191812,1.1645702 1.191812,3.3813396 0,2.2167694 -1.178191,3.3677194 -0.02724,0.01703 -0.02724,0.05789 0,0.02384 0.01703,0.04086 0.02043,0.02043 0.04427,0.02043 l 0.0647,0 q 0.02043,0 0.03405,-0.01362 0.50056,-0.395001 0.834268,-0.96026 0.333707,-0.565259 0.48694,-1.205432 0.156638,-0.6401733 0.156638,-1.3075878 0,-0.4937505 -0.08513,-0.9738802 Q 79.705261,7.7228443 79.521377,7.2597404 79.340902,6.7932313 79.061678,6.4016361 78.782454,6.0066357 78.394264,5.7001699 q -0.01362,-0.013621 -0.03405,-0.013621 l -0.0647,0 z"
           id="path3431"
           inkscape:connector-curvature="0" /><path
           style="font-size:medium;font-style:normal;font-variant:normal;font-weight:normal;font-stretch:normal;writing-mode:lr-tb;fill:#000000;fill-opacity:1;fill-rule:nonzero;stroke:none;font-family:cmr10;-inkscape-font-specification:cmr10"
           d="m 74.909985,7.43 0,0.2451727 q 0.238362,0 0.391595,0.037457 0.153233,0.037457 0.153233,0.1838794 l 0,1.9034934 q 0,0.1872847 -0.05789,0.2690085 -0.05448,0.08513 -0.160043,0.102156 -0.105561,0.02043 -0.326897,0.02043 l 0,0.245172 0.997716,0.07491 0,-0.6810348 q 0.112371,0.3030608 0.320087,0.4903448 0.207715,0.19069 0.503966,0.19069 0.207715,0 0.371164,-0.122586 0.163448,-0.122586 0.163448,-0.323492 0,-0.1259912 -0.09194,-0.2213361 -0.08854,-0.09194 -0.221337,-0.09194 -0.129397,0 -0.221336,0.09194 -0.09194,0.09194 -0.09194,0.2213361 0,0.187285 0.132802,0.265604 l -0.04086,0 q -0.28263,0 -0.463104,-0.204311 Q 76.09158,9.9225888 76.016666,9.6195282 75.941756,9.3164675 75.941756,9.0406483 l 0,-1.1441392 q 0,-0.2213364 0.67763,-0.2213364 l -3e-6,-0.2451727 -1.709398,0 z"
           id="path3429"
           inkscape:connector-curvature="0" /><path
           id="path3425"
           style="font-size:medium;font-style:normal;font-variant:normal;font-weight:normal;font-stretch:normal;writing-mode:lr-tb;fill:#000000;fill-opacity:1;fill-rule:nonzero;stroke:none;font-family:cmr10;-inkscape-font-specification:cmr10"
           d="m 71.602415,8.1144403 q 0,-0.2451726 0.180475,-0.4120262 0.180474,-0.1668537 0.425647,-0.1668537 0.224741,0 0.408621,0.1123709 0.183879,0.1123708 0.292845,0.3064658 0.108965,0.194095 0.108965,0.4086211 l 0,0.7253024 q -0.316681,0 -0.650388,-0.1055604 Q 72.038278,8.8806049 71.820347,8.6592685 71.602415,8.4379321 71.602415,8.1144403 z m -0.565259,0 q 0,0.4154315 0.326897,0.6742249 0.326897,0.2621985 0.78319,0.367759 0.459699,0.1089656 0.871725,0.1089656 l 0,0.2860348 q 0,0.2009053 -0.08853,0.38819 -0.08854,0.1906894 -0.255388,0.3098714 -0.166854,0.122586 -0.367759,0.122586 -0.463104,0 -0.704872,-0.207716 0.132802,0 0.217932,-0.102155 0.08853,-0.09875 0.08853,-0.231552 0,-0.1396122 -0.09875,-0.2383623 -0.09875,-0.09875 -0.234957,-0.09875 -0.139612,0 -0.238362,0.09875 -0.09875,0.09875 -0.09875,0.2383623 0,0.367759 0.333707,0.544828 0.333707,0.180474 0.735518,0.180474 0.282629,0 0.568664,-0.122586 0.286035,-0.119181 0.466509,-0.343923 0.18388,-0.2247413 0.18388,-0.5243967 l 0,-1.5697861 q 0,-0.136207 0.05789,-0.251983 0.05789,-0.1123708 0.180474,-0.1123708 0.115776,0 0.170259,0.115776 0.05789,0.1157759 0.05789,0.2485778 l 0,0.446078 0.20431,0 0,-0.446078 q 0,-0.1566381 -0.08172,-0.2996555 -0.08172,-0.1396122 -0.221336,-0.2247416 -0.136207,-0.081724 -0.296251,-0.081724 -0.20431,0 -0.354138,0.1566381 -0.146422,0.1600432 -0.163448,0.3779745 -0.129397,-0.2621985 -0.38138,-0.4188366 -0.251983,-0.153233 -0.538018,-0.153233 -0.265604,0 -0.524397,0.078319 -0.255388,0.078319 -0.429052,0.2451727 -0.170259,0.1702588 -0.170259,0.4392676 z"
           inkscape:connector-curvature="0" /><path
           id="path3421"
           style="font-size:medium;font-style:normal;font-variant:normal;font-weight:normal;font-stretch:normal;writing-mode:lr-tb;fill:#000000;fill-opacity:1;fill-rule:nonzero;stroke:none;font-family:cmr10;-inkscape-font-specification:cmr10"
           d="m 67.348371,8.0361213 q 0.119181,-0.2281468 0.316681,-0.3643538 0.200906,-0.1362071 0.435863,-0.1362071 0.28944,0 0.531207,0.1668537 0.241768,0.1668536 0.360949,0.4324573 l 0,1.6719414 q -0.08172,0.1532329 -0.207716,0.2724142 -0.122586,0.122586 -0.279224,0.187285 -0.153233,0.0647 -0.326897,0.0647 -0.364354,0 -0.58569,-0.207716 -0.221337,-0.2043107 -0.309871,-0.5243973 -0.08854,-0.3200865 -0.08854,-0.6708196 0,-0.2792244 0.02724,-0.4869402 0.03065,-0.2077157 0.125992,-0.4052159 z m 0.711682,-0.6844404 q -0.412027,0 -0.752544,0.2213365 -0.340518,0.2247416 -0.531208,0.5890954 -0.187284,0.3643538 -0.187284,0.7729749 0,0.4222418 0.20431,0.7831905 0.207716,0.3643538 0.561854,0.5788798 0.354139,0.214526 0.779786,0.214526 0.255388,0 0.483535,-0.108966 0.228146,-0.10556 0.395,-0.29625 l 0,1.450605 q 0,0.187285 -0.05789,0.269009 -0.05448,0.08513 -0.160043,0.102155 -0.102156,0.02043 -0.323492,0.02043 l 0,0.245173 1.031768,0.07491 0,-4.2053923 q 0,-0.1838795 0.05448,-0.2690089 0.05789,-0.081724 0.160043,-0.1021553 0.105561,-0.017026 0.326897,-0.017026 l 0,-0.2451726 -1.052199,-0.078319 0,0.4392677 Q 68.812592,7.5832329 68.564014,7.4674569 68.315436,7.3516809 68.060048,7.3516809 z"
           inkscape:connector-curvature="0" /><path
           style="font-size:medium;font-style:normal;font-variant:normal;font-weight:normal;font-stretch:normal;writing-mode:lr-tb;fill:#000000;fill-opacity:1;fill-rule:nonzero;stroke:none;font-family:cmr10;-inkscape-font-specification:cmr10"
           d="m 62.164712,7.43 0,0.2451727 q 0.238362,0 0.391595,0.037457 0.153233,0.037457 0.153233,0.1838794 l 0,1.9034934 q 0,0.1872847 -0.05789,0.2690085 -0.05448,0.08513 -0.160043,0.102156 -0.105561,0.02043 -0.326897,0.02043 l 0,0.245172 1.011337,0.07491 0,-0.6810348 q 0.139612,0.2996558 0.412026,0.4903448 0.275819,0.19069 0.599311,0.19069 0.483535,0 0.725303,-0.231552 0.245172,-0.231552 0.245172,-0.7082762 l 0,-1.6753466 q 0,-0.1464225 0.153233,-0.1838794 0.153233,-0.037457 0.391595,-0.037457 l 0,-0.2451727 -1.597027,0 0,0.2451727 q 0.238362,0 0.391595,0.037457 0.153233,0.037457 0.153233,0.1838794 l 0,1.6549156 q 0,0.3405176 -0.09875,0.5584482 -0.09875,0.221337 -0.405216,0.221337 -0.405216,0 -0.667414,-0.323492 -0.258794,-0.3234914 -0.258794,-0.7355177 l 0,-1.3756911 q 0,-0.1464225 0.153233,-0.1838794 0.153233,-0.037457 0.38819,-0.037457 l 2e-6,-0.2451728 -1.597027,0 z"
           id="path3419"
           inkscape:connector-curvature="0" /><path
           id="path3415"
           style="font-size:medium;font-style:normal;font-variant:normal;font-weight:normal;font-stretch:normal;writing-mode:lr-tb;fill:#000000;fill-opacity:1;fill-rule:nonzero;stroke:none;font-family:cmr10;-inkscape-font-specification:cmr10"
           d="m 59.225436,9.2143123 1.590217,0 q 0,0.2621985 -0.07491,0.5312074 -0.07151,0.2690093 -0.241768,0.4460783 -0.170258,0.180474 -0.446078,0.180474 -0.395,0 -0.612931,-0.371164 Q 59.22544,9.6331488 59.22544,9.2143122 z M 60.151643,7.351681 q -0.425647,0 -0.78319,0.2213365 -0.354138,0.2247416 -0.558449,0.5959058 -0.200905,0.3745693 -0.200905,0.7900008 0,0.4086211 0.183879,0.7763801 0.187285,0.3677588 0.517587,0.5925008 0.333707,0.228146 0.742328,0.228146 0.320087,0 0.555044,-0.108965 0.238362,-0.105561 0.391595,-0.29625 0.153233,-0.1906902 0.231552,-0.4494836 0.07832,-0.2587934 0.07832,-0.5686644 0,-0.09194 -0.07151,-0.09194 l -2.01927,0 0,-0.074914 q 0,-0.5788799 0.231552,-0.9943113 0.234957,-0.4154315 0.76276,-0.4154315 0.214526,0 0.395,0.095345 0.18388,0.095345 0.316681,0.2656037 0.136207,0.1702588 0.18388,0.3643539 0.0068,0.023836 0.02384,0.040862 0.02043,0.020431 0.04427,0.020431 l 0.06129,0 q 0.07151,0 0.07151,-0.088535 Q 61.210657,7.8590517 60.88376,7.6036636 60.556863,7.3516805 60.151647,7.3516805 z"
           inkscape:connector-curvature="0" /><path
           style="font-size:medium;font-style:normal;font-variant:normal;font-weight:normal;font-stretch:normal;writing-mode:lr-tb;fill:#000000;fill-opacity:1;fill-rule:nonzero;stroke:none;font-family:cmr10;-inkscape-font-specification:cmr10"
           d="m 56.374203,7.43 0,0.2451727 q 0.238362,0 0.391595,0.037457 0.153233,0.037457 0.153233,0.1838794 l 0,3.6605639 q 0,0.187285 -0.05789,0.269009 -0.05448,0.08513 -0.160043,0.102155 -0.105561,0.02043 -0.326897,0.02043 l 0,0.245173 1.035173,0.07491 0,-4.3722459 q 0,-0.1464225 0.153233,-0.1838794 0.153233,-0.037457 0.38819,-0.037457 l 2e-6,-0.2451727 -1.576596,0 z"
           id="path3413"
           inkscape:connector-curvature="0" /><path
           id="path3409"
           style="font-size:medium;font-style:normal;font-variant:normal;font-weight:normal;font-stretch:normal;writing-mode:lr-tb;fill:#000000;fill-opacity:1;fill-rule:nonzero;stroke:none;font-family:cmr10;-inkscape-font-specification:cmr10"
           d="m 53.032581,8.1144403 q 0,-0.2451726 0.180474,-0.4120262 0.180475,-0.1668537 0.425647,-0.1668537 0.224742,0 0.408622,0.1123709 0.183879,0.1123708 0.292845,0.3064658 0.108965,0.194095 0.108965,0.4086211 l 0,0.7253024 q -0.316681,0 -0.650388,-0.1055604 Q 53.468444,8.8806049 53.250512,8.6592685 53.032581,8.4379321 53.032581,8.1144403 z m -0.565259,0 q 0,0.4154315 0.326897,0.6742249 0.326897,0.2621985 0.78319,0.367759 0.459699,0.1089656 0.871725,0.1089656 l 0,0.2860348 q 0,0.2009053 -0.08854,0.38819 -0.08854,0.1906894 -0.255388,0.3098714 -0.166853,0.122586 -0.367759,0.122586 -0.463104,0 -0.704871,-0.207716 0.132802,0 0.217931,-0.102155 0.08853,-0.09875 0.08853,-0.231552 0,-0.1396122 -0.09875,-0.2383623 -0.09875,-0.09875 -0.234957,-0.09875 -0.139612,0 -0.238362,0.09875 -0.09875,0.09875 -0.09875,0.2383623 0,0.367759 0.333707,0.544828 0.333707,0.180474 0.735518,0.180474 0.282629,0 0.568664,-0.122586 0.286035,-0.119181 0.466509,-0.343923 0.18388,-0.2247413 0.18388,-0.5243967 l 0,-1.5697861 q 0,-0.136207 0.05789,-0.251983 0.05789,-0.1123708 0.180474,-0.1123708 0.115776,0 0.170259,0.115776 0.05789,0.1157759 0.05789,0.2485778 l 0,0.446078 0.20431,0 0,-0.446078 q 0,-0.1566381 -0.08172,-0.2996555 -0.08172,-0.1396122 -0.221336,-0.2247416 -0.136207,-0.081724 -0.29625,-0.081724 -0.204311,0 -0.354139,0.1566381 -0.146426,0.1600432 -0.163452,0.3779745 -0.129396,-0.2621985 -0.381379,-0.4188366 -0.251983,-0.153233 -0.538018,-0.153233 -0.265604,0 -0.524397,0.078319 -0.255388,0.078319 -0.429052,0.2451727 -0.170259,0.1702588 -0.170259,0.4392676 z"
           inkscape:connector-curvature="0" /><path
           style="font-size:medium;font-style:normal;font-variant:normal;font-weight:normal;font-stretch:normal;writing-mode:lr-tb;fill:#000000;fill-opacity:1;fill-rule:nonzero;stroke:none;font-family:cmr10;-inkscape-font-specification:cmr10"
           d="m 50.382744,7.3516809 q -0.422242,0 -0.766165,0.2179313 -0.343922,0.2213364 -0.541423,0.5856903 -0.1975,0.367759 -0.1975,0.7797852 0,0.4120263 0.194095,0.7900008 0.197501,0.3779745 0.541423,0.6027165 0.347328,0.228146 0.76957,0.228146 0.408621,0 0.742328,-0.160043 0.337113,-0.160043 0.337113,-0.5243969 0,-0.136207 -0.09875,-0.2383623 -0.09535,-0.09875 -0.234957,-0.09875 -0.139613,0 -0.238363,0.09875 -0.09535,0.1021553 -0.09535,0.2383623 0,0.1225863 0.07832,0.2111209 0.07832,0.09194 0.194095,0.115776 -0.241767,0.153233 -0.67763,0.153233 -0.333707,0 -0.538017,-0.221337 -0.204311,-0.221336 -0.286035,-0.5482328 -0.08172,-0.3268969 -0.08172,-0.6469835 0,-0.3371124 0.09875,-0.6537937 0.102155,-0.3132762 0.323491,-0.5209919 0.224742,-0.2043106 0.561854,-0.2043106 0.330302,0 0.561854,0.2009054 0.231552,0.2043105 0.316682,0.5312074 0,0.040862 0.05448,0.040862 l 0.08513,0 q 0.02043,0 0.03746,-0.020431 0.01703,-0.017026 0.01703,-0.040862 l 0,-0.020431 Q 51.434943,7.8352159 51.121667,7.5934484 50.808391,7.3516809 50.382744,7.3516809 z"
           id="path3407"
           inkscape:connector-curvature="0" /><path
           style="font-size:medium;font-style:normal;font-variant:normal;font-weight:normal;font-stretch:normal;writing-mode:lr-tb;fill:#000000;fill-opacity:1;fill-rule:nonzero;stroke:none;font-family:cmr10;-inkscape-font-specification:cmr10"
           d="m 47.695287,5.7001707 q -0.38819,0.3064658 -0.67082,0.7048714 -0.279224,0.3950004 -0.459699,0.8444836 -0.177069,0.4494832 -0.265603,0.9398285 -0.08854,0.4903453 -0.08854,0.9840958 0,0.5005609 0.08854,0.990906 0.08853,0.490346 0.269008,0.943234 0.18388,0.452888 0.46651,0.847889 0.282629,0.395 0.660604,0.69125 0,0.01362 0.03405,0.01362 l 0.0647,0 q 0.02043,0 0.03746,-0.02043 0.01703,-0.01703 0.01703,-0.04086 0,-0.03065 -0.01362,-0.04427 -0.340518,-0.333707 -0.568665,-0.715087 -0.224741,-0.381379 -0.364353,-0.813837 -0.136208,-0.429052 -0.197501,-0.892156 -0.06129,-0.4596984 -0.06129,-0.9602593 0,-2.2167695 1.185001,-3.3677189 0.02043,-0.020431 0.02043,-0.057888 0,-0.017026 -0.02043,-0.037457 -0.01703,-0.023836 -0.03405,-0.023836 l -0.0647,0 q -0.03405,0 -0.03405,0.013621 z"
           id="path3405"
           inkscape:connector-curvature="0" /></g></g><path
       style="font-size:medium;font-style:normal;font-variant:normal;font-weight:normal;font-stretch:normal;writing-mode:lr-tb;fill:#000000;fill-opacity:1;fill-rule:nonzero;stroke:none;font-family:cmr10;-inkscape-font-specification:cmr10"
       d="m 96.161255,49.880273 0,1.775029 7.575325,0 0,-1.775029 -7.575325,0 z"
       id="path3395"
       inkscape:connector-curvature="0" /><g
       id="g3618"
       transform="translate(-64.503869,-31.212623)"
       style="fill:#cccccc"><path
         inkscape:connector-curvature="0"
         id="path3620"
         d="m 111.98465,44.58314 0,1.006315 q 2.94907,0 2.94907,0.908479 l 0,15.723682 q 0,0.908479 -2.94907,0.908479 l 0,1.006315 8.56766,0 0,-1.006315 q -2.94906,0 -2.94906,-0.908479 l 0,-9.280466 8.84719,8.497775 q 0.36339,0.391346 0.36339,0.782691 0,0.447251 -0.39134,0.670877 -0.37737,0.237602 -0.86655,0.237602 l 0,1.006315 6.21958,0 0,-1.006315 q -2.34807,0 -4.1231,-1.69117 l -5.0735,-4.863859 6.2755,-9.294442 q 0.76871,-1.132105 1.34174,-1.411637 0.58702,-0.279533 1.97071,-0.279533 l 0,-1.006315 -7.49146,0 0,1.006315 q 0.68486,0 1.14608,0.139768 0.47521,0.139765 0.47521,0.6569 0,0.349415 -0.36339,0.894503 l -5.12942,7.603273 -3.20064,-3.088829 0,-5.297134 q 0,-0.908479 2.94906,-0.908479 l 0,-1.006315 -8.56766,0 z"
         style="font-size:medium;font-style:normal;font-variant:normal;font-weight:normal;font-stretch:normal;writing-mode:lr-tb;fill:#cccccc;fill-opacity:1;fill-rule:nonzero;stroke:none;font-family:cmr10;-inkscape-font-specification:cmr10" /><path
         inkscape:connector-curvature="0"
         d="m 99.966569,45.799871 6.275491,0 -3.14473,9.140699 -3.130761,-9.140699 z m -5.828243,-7.379648 0,1.006316 q 2.557716,0 3.144733,1.691169 L 103.293,58.602442 q 0.0839,0.307485 0.46123,0.307485 l 0.36339,0 q 0.37737,0 0.46123,-0.307485 l 6.2755,-18.267424 q 0.26556,-0.600994 1.00631,-0.754737 0.75474,-0.153742 1.87287,-0.153742 l 0,-1.006316 -7.98065,0 0,1.006316 q 2.37603,0 2.37603,0.768713 l 0,0.139765 -1.5514,4.472514 -6.946379,0 -1.285849,-3.689824 q -0.02787,-0.09784 -0.02787,-0.293509 0,-0.712807 0.670878,-1.062222 0.684854,-0.335438 1.46754,-0.335438 l 0,-1.006316 -6.317422,0 z"
         style="font-size:medium;font-style:normal;font-variant:normal;font-weight:normal;font-stretch:normal;writing-mode:lr-tb;fill:#cccccc;fill-opacity:1;fill-rule:nonzero;stroke:none;font-family:cmr10;-inkscape-font-specification:cmr10"
         id="path3622" /><path
         inkscape:connector-curvature="0"
         id="path3624"
         d="m 82.147942,44.58314 0,1.006315 q 1.439588,0 2.79532,0.153743 1.35573,0.167717 1.35573,0.754736 l 0,15.723682 q 0,0.614971 -0.349415,0.754736 -0.335438,0.153743 -1.10415,0.153743 l -1.20199,0 q -2.362047,0 -3.354385,-1.034269 -0.517134,-0.517134 -0.74076,-1.663216 -0.223618,-1.132105 -0.377369,-2.851227 l -0.824618,0 0.545087,6.555027 17.484733,0 0.545089,-6.555027 -0.838595,0 q -0.167707,1.844911 -0.37737,2.92111 -0.195661,1.090176 -0.726784,1.593333 -1.006317,1.034269 -3.354385,1.034269 l -1.201987,0 q -0.517136,0 -0.810644,-0.04193 -0.279529,-0.04193 -0.46123,-0.251579 -0.181698,-0.195673 -0.181698,-0.614971 l 0,-15.723681 q 0,-0.587018 1.355732,-0.754737 1.35573,-0.153742 2.781343,-0.153742 l 3e-6,-1.006315 -10.957657,0 z"
         style="font-size:medium;font-style:normal;font-variant:normal;font-weight:normal;font-stretch:normal;writing-mode:lr-tb;fill:#cccccc;fill-opacity:1;fill-rule:nonzero;stroke:none;font-family:cmr10;-inkscape-font-specification:cmr10" /></g><path
       style="font-size:medium;font-style:normal;font-variant:normal;font-weight:normal;font-stretch:normal;writing-mode:lr-tb;fill:#cccccc;fill-opacity:1;fill-rule:nonzero;stroke:none;font-family:cmr10;-inkscape-font-specification:cmr10"
       d="m 56.571221,40.448861 q -0.307486,0 -0.307486,0.321462 l 0,0.391344 q 0,0.111812 0.05591,0.167721 l 11.125377,17.666429 -4.025263,0 q -2.01263,0 -3.326432,-0.531111 -1.299824,-0.531111 -1.9707,-1.747076 -0.656901,-1.215964 -0.656901,-3.270525 l -0.838596,0 0.321461,6.555027 13.249821,0 q 0.321463,0 0.321463,-0.321461 l 0,-0.335439 q 0,-0.125789 -0.02787,-0.181696 l -11.139353,-17.624499 4.206959,0 q 1.52345,0 2.739415,0.279532 1.215964,0.279533 2.040582,1.090176 0.573042,0.57304 0.894503,1.43959 0.321463,0.86655 0.4193,1.677193 0.09784,0.810643 0.195661,2.180351 l 0.838596,0 -0.48918,-7.757017 -13.627191,0 z"
       id="path3628"
       inkscape:connector-curvature="0" /><path
       style="font-size:medium;font-style:normal;font-variant:normal;font-weight:normal;font-stretch:normal;writing-mode:lr-tb;fill:#cccccc;fill-opacity:1;fill-rule:nonzero;stroke:none;font-family:cmr10;-inkscape-font-specification:cmr10"
       d="m 39.932189,40.965995 q 0,0.16772 0.02787,0.251579 l 4.151052,16.548301 q 0.11182,0.489181 0.139779,0.768713 0,0.461229 -1.858891,0.461229 -0.293507,0 -0.293507,0.377368 0.01408,0.06988 0.05591,0.251579 0.05591,0.181695 0.125787,0.279532 0.08387,0.09784 0.223618,0.09784 l 3.857543,0.307487 0.08387,0 q 0,-0.02787 0.09782,-0.08386 0.09784,-0.04191 0.111821,-0.05591 0.05591,-0.139768 0.05591,-0.223626 l -3.00497,-11.963971 q 1.034266,0.433275 2.599647,2.054561 1.579356,1.635263 2.459883,2.34807 0.894502,0.712807 2.236256,0.712807 0.796666,0 1.35573,-0.545088 0.559065,-0.545088 0.559065,-1.341755 0,-0.503156 -0.209655,-0.936431 -0.209654,-0.419299 -0.587017,-0.684854 -0.377368,-0.265555 -0.880524,-0.265555 -0.461231,0 -0.78269,0.279533 -0.307486,0.293508 -0.307486,0.754736 0,0.684854 0.475203,1.146082 0.489184,0.475205 1.174038,0.475205 -0.279531,0.377368 -0.852575,0.377368 -0.852571,0 -1.649239,-0.489181 -0.782691,-0.489182 -1.705146,-1.411638 -0.90848,-0.908479 -1.663218,-1.677192 -0.754734,-0.754736 -1.39766,-1.146082 1.691171,-0.195674 2.935089,-0.894503 1.243918,-0.684853 1.243918,-2.110467 0,-0.293509 -0.111821,-0.74076 -0.251572,-1.076198 -0.251572,-1.719123 0,-1.285847 0.880527,-1.285847 1.034266,0 1.565377,1.132105 0.54509,1.132105 0.894505,2.641578 0.05591,0.16772 0.23761,0.16772 l 0.335438,0 q 0.111821,0 0.181699,-0.06988 0.08387,-0.06988 0.08387,-0.181695 0,-0.02796 -0.02787,-0.08386 -1.076199,-4.360701 -3.326432,-4.360701 -0.810643,0 -1.43959,0.377368 -0.61497,0.377369 -0.950411,1.020293 -0.335439,0.6569 -0.335439,1.467543 0,0.461228 0.125787,0.950409 0.08387,0.335439 0.08387,0.628947 0,1.104152 -0.978361,1.677193 -0.978358,0.573036 -2.236254,0.698826 l -1.45356,-5.842227 q -0.111823,-0.433274 -0.433275,-0.69883 -0.321463,-0.279532 -0.740759,-0.279532 -0.363395,0 -0.628949,0.251579 -0.251572,0.237602 -0.251572,0.587018 z"
       id="path3630"
       inkscape:connector-curvature="0" /><path
       style="font-size:medium;font-style:normal;font-variant:normal;font-weight:normal;font-stretch:normal;writing-mode:lr-tb;fill:#cccccc;fill-opacity:1;fill-rule:nonzero;stroke:none;font-family:cmr10;-inkscape-font-specification:cmr10"
       d="m 31.336342,40.448861 0,1.006315 q 0.978364,0 1.607311,0.153743 0.628949,0.153742 0.628949,0.754736 l 0,7.812923 q 0,1.104151 -0.433277,1.35573 -0.419298,0.251579 -1.677193,0.251579 l 0,1.006316 4.1231,0.307485 0,-10.734033 q 0,-0.600994 0.545086,-0.754736 0.54509,-0.153743 1.45357,-0.153743 l 0,-1.006316 -6.247546,0 z"
       id="path3632"
       inkscape:connector-curvature="0" /><path
       style="font-size:medium;font-style:normal;font-variant:normal;font-weight:normal;font-stretch:normal;writing-mode:lr-tb;fill:#cccccc;fill-opacity:1;fill-rule:nonzero;stroke:none;font-family:cmr10;-inkscape-font-specification:cmr10"
       d="m 32.552308,58.017454 q 0,0.628947 0.475205,1.104151 0.475205,0.475205 1.090176,0.475205 0.405321,0 0.782689,-0.209649 0.377369,-0.209648 0.587017,-0.587017 0.209655,-0.377368 0.209655,-0.782689 0,-0.614971 -0.475205,-1.090176 -0.475207,-0.475205 -1.104152,-0.475205 -0.614972,0 -1.090174,0.475205 -0.475207,0.475204 -0.475207,1.090175 z"
       id="path3634"
       inkscape:connector-curvature="0" /><path
       style="font-size:medium;font-style:normal;font-variant:normal;font-weight:normal;font-stretch:normal;writing-mode:lr-tb;fill:#cccccc;fill-opacity:1;fill-rule:nonzero;stroke:none;font-family:cmr10;-inkscape-font-specification:cmr10"
       d="m 14.619407,40.448861 0,1.006315 q 1.439588,0 2.795321,0.153743 1.355729,0.167717 1.355729,0.754736 l 0,15.723682 q 0,0.614971 -0.349415,0.754736 -0.335438,0.153743 -1.104151,0.153743 l -1.20199,0 q -2.362046,0 -3.354385,-1.034269 -0.517133,-0.517134 -0.740759,-1.663216 -0.223618,-1.132105 -0.377369,-2.851227 l -0.824618,0 0.545086,6.555027 17.484734,0 0.545089,-6.555027 -0.838599,0 q -0.167707,1.844911 -0.377366,2.92111 -0.195662,1.090176 -0.726784,1.593333 -1.006317,1.034269 -3.354385,1.034269 l -1.20199,0 q -0.517133,0 -0.810641,-0.04193 -0.279529,-0.04193 -0.46123,-0.251579 -0.181698,-0.195673 -0.181698,-0.614971 l 0,-15.723681 q 0,-0.587018 1.355732,-0.754737 1.35573,-0.153742 2.781343,-0.153742 l 0,-1.006315 -10.957657,0 z"
       id="path3636"
       inkscape:connector-curvature="0" /><path
       inkscape:connector-curvature="0"
       id="path3598"
       d="m 46.183381,14.486356 0,1.006315 q 2.94907,0 2.94907,0.908479 l 0,15.723682 q 0,0.908479 -2.94907,0.908479 l 0,1.006315 8.56766,0 0,-1.006315 q -2.94906,0 -2.94906,-0.908479 l 0,-9.280466 8.84719,8.497775 q 0.36339,0.391346 0.36339,0.782691 0,0.447251 -0.39134,0.670877 -0.37737,0.237602 -0.86655,0.237602 l 0,1.006315 6.21958,0 0,-1.006315 q -2.34807,0 -4.1231,-1.69117 l -5.0735,-4.863859 6.2755,-9.294442 q 0.76871,-1.132105 1.34174,-1.411637 0.58702,-0.279533 1.97071,-0.279533 l 0,-1.006315 -7.49146,0 0,1.006315 q 0.68486,0 1.14608,0.139768 0.47521,0.139765 0.47521,0.6569 0,0.349415 -0.36339,0.894503 l -5.12942,7.603273 -3.20064,-3.088829 0,-5.297134 q 0,-0.908479 2.94906,-0.908479 l 0,-1.006315 -8.56766,0 z"
       style="font-size:medium;font-style:normal;font-variant:normal;font-weight:normal;font-stretch:normal;writing-mode:lr-tb;fill:#999999;fill-opacity:1;fill-rule:nonzero;stroke:none;font-family:cmr10;-inkscape-font-specification:cmr10" /><path
       inkscape:connector-curvature="0"
       d="m 34.1653,15.703087 6.275491,0 -3.14473,9.140699 -3.130761,-9.140699 z m -5.828243,-7.379648 0,1.006316 q 2.557716,0 3.144733,1.691169 l 6.009941,17.484734 q 0.0839,0.307485 0.46123,0.307485 l 0.36339,0 q 0.37737,0 0.46123,-0.307485 l 6.2755,-18.267424 q 0.26556,-0.600994 1.00631,-0.754737 0.75474,-0.153742 1.87287,-0.153742 l 0,-1.006316 -7.98065,0 0,1.006316 q 2.37603,0 2.37603,0.768713 l 0,0.139765 -1.5514,4.472514 -6.946379,0 -1.285849,-3.689824 q -0.02787,-0.09784 -0.02787,-0.293509 0,-0.712807 0.670878,-1.062222 0.684854,-0.335438 1.46754,-0.335438 l 0,-1.006316 -6.317422,0 z"
       style="font-size:medium;font-style:normal;font-variant:normal;font-weight:normal;font-stretch:normal;writing-mode:lr-tb;fill:#999999;fill-opacity:1;fill-rule:nonzero;stroke:none;font-family:cmr10;-inkscape-font-specification:cmr10"
       id="path3600" /><path
       inkscape:connector-curvature="0"
       id="path3602"
       d="m 16.346673,14.486356 0,1.006315 q 1.439588,0 2.79532,0.153743 1.35573,0.167717 1.35573,0.754736 l 0,15.723682 q 0,0.614971 -0.349415,0.754736 -0.335438,0.153743 -1.10415,0.153743 l -1.20199,0 q -2.362047,0 -3.354385,-1.034269 -0.517134,-0.517134 -0.74076,-1.663216 -0.223618,-1.132105 -0.377369,-2.851227 l -0.824618,0 0.545087,6.555027 17.484733,0 0.545089,-6.555027 -0.838595,0 q -0.167707,1.844911 -0.37737,2.92111 -0.195661,1.090176 -0.726784,1.593333 -1.006317,1.034269 -3.354385,1.034269 l -1.201987,0 q -0.517136,0 -0.810644,-0.04193 -0.279529,-0.04193 -0.46123,-0.251579 -0.181698,-0.195673 -0.181698,-0.614971 l 0,-15.723681 q 0,-0.587018 1.355732,-0.754737 1.35573,-0.153742 2.781343,-0.153742 l 3e-6,-1.006315 -10.957657,0 z"
       style="font-size:medium;font-style:normal;font-variant:normal;font-weight:normal;font-stretch:normal;writing-mode:lr-tb;fill:#999999;fill-opacity:1;fill-rule:nonzero;stroke:none;font-family:cmr10;-inkscape-font-specification:cmr10" /><path
       inkscape:connector-curvature="0"
       id="path3606"
       d="m 55.273821,41.5647 q -0.307486,0 -0.307486,0.321462 l 0,0.391344 q 0,0.111812 0.05591,0.167721 l 11.125377,17.666429 -4.025263,0 q -2.01263,0 -3.326432,-0.531111 -1.299824,-0.531111 -1.9707,-1.747076 -0.656901,-1.215964 -0.656901,-3.270525 l -0.838596,0 0.321461,6.555027 13.249821,0 q 0.321463,0 0.321463,-0.321461 l 0,-0.335439 q 0,-0.125789 -0.02787,-0.181696 l -11.139353,-17.624499 4.206959,0 q 1.52345,0 2.739415,0.279532 1.215964,0.279533 2.040582,1.090176 0.573042,0.57304 0.894503,1.43959 0.321463,0.86655 0.4193,1.677193 0.09784,0.810643 0.195661,2.180351 l 0.838596,0 -0.48918,-7.757017 -13.627191,0 z"
       style="font-size:medium;font-style:normal;font-variant:normal;font-weight:normal;font-stretch:normal;writing-mode:lr-tb;fill:#999999;fill-opacity:1;fill-rule:nonzero;stroke:none;font-family:cmr10;-inkscape-font-specification:cmr10" /><path
       inkscape:connector-curvature="0"
       id="path3608"
       d="m 38.634789,42.081834 q 0,0.16772 0.02787,0.251579 l 4.151052,16.548301 q 0.11182,0.489181 0.139779,0.768713 0,0.461229 -1.858891,0.461229 -0.293507,0 -0.293507,0.377368 0.01408,0.06988 0.05591,0.251579 0.05591,0.181695 0.125787,0.279532 0.08387,0.09784 0.223618,0.09784 l 3.857543,0.307487 0.08387,0 q 0,-0.02787 0.09782,-0.08386 0.09784,-0.04191 0.111821,-0.05591 0.05591,-0.139768 0.05591,-0.223626 l -3.00497,-11.963971 q 1.034266,0.433275 2.599647,2.054561 1.579356,1.635263 2.459883,2.34807 0.894502,0.712807 2.236256,0.712807 0.796666,0 1.35573,-0.545088 0.559065,-0.545088 0.559065,-1.341755 0,-0.503156 -0.209655,-0.936431 -0.209654,-0.419299 -0.587017,-0.684854 -0.377368,-0.265555 -0.880524,-0.265555 -0.461231,0 -0.78269,0.279533 -0.307486,0.293508 -0.307486,0.754736 0,0.684854 0.475203,1.146082 0.489184,0.475205 1.174038,0.475205 -0.279531,0.377368 -0.852575,0.377368 -0.852571,0 -1.649239,-0.489181 -0.782691,-0.489182 -1.705146,-1.411638 -0.90848,-0.908479 -1.663218,-1.677192 -0.754734,-0.754736 -1.39766,-1.146082 1.691171,-0.195674 2.935089,-0.894503 1.243918,-0.684853 1.243918,-2.110467 0,-0.293509 -0.111821,-0.74076 -0.251572,-1.076198 -0.251572,-1.719123 0,-1.285847 0.880527,-1.285847 1.034266,0 1.565377,1.132105 0.54509,1.132105 0.894505,2.641578 0.05591,0.16772 0.23761,0.16772 l 0.335438,0 q 0.111821,0 0.181699,-0.06988 0.08387,-0.06988 0.08387,-0.181695 0,-0.02796 -0.02787,-0.08386 -1.076199,-4.360701 -3.326432,-4.360701 -0.810643,0 -1.43959,0.377368 -0.61497,0.377369 -0.950411,1.020293 -0.335439,0.6569 -0.335439,1.467543 0,0.461228 0.125787,0.950409 0.08387,0.335439 0.08387,0.628947 0,1.104152 -0.978361,1.677193 -0.978358,0.573036 -2.236254,0.698826 L 40.689393,42.2216 q -0.111823,-0.433274 -0.433275,-0.69883 -0.321463,-0.279532 -0.740759,-0.279532 -0.363395,0 -0.628949,0.251579 -0.251572,0.237602 -0.251572,0.587018 z"
       style="font-size:medium;font-style:normal;font-variant:normal;font-weight:normal;font-stretch:normal;writing-mode:lr-tb;fill:#999999;fill-opacity:1;fill-rule:nonzero;stroke:none;font-family:cmr10;-inkscape-font-specification:cmr10" /><path
       inkscape:connector-curvature="0"
       id="path3610"
       d="m 30.038942,41.5647 0,1.006315 q 0.978364,0 1.607311,0.153743 0.628949,0.153742 0.628949,0.754736 l 0,7.812923 q 0,1.104151 -0.433277,1.35573 -0.419298,0.251579 -1.677193,0.251579 l 0,1.006316 4.1231,0.307485 0,-10.734033 q 0,-0.600994 0.545086,-0.754736 0.54509,-0.153743 1.45357,-0.153743 l 0,-1.006316 -6.247546,0 z"
       style="font-size:medium;font-style:normal;font-variant:normal;font-weight:normal;font-stretch:normal;writing-mode:lr-tb;fill:#999999;fill-opacity:1;fill-rule:nonzero;stroke:none;font-family:cmr10;-inkscape-font-specification:cmr10" /><path
       inkscape:connector-curvature="0"
       id="path3612"
       d="m 31.254908,59.133293 q 0,0.628947 0.475205,1.104151 0.475205,0.475205 1.090176,0.475205 0.405321,0 0.782689,-0.209649 0.377369,-0.209648 0.587017,-0.587017 0.209655,-0.377368 0.209655,-0.782689 0,-0.614971 -0.475205,-1.090176 -0.475207,-0.475205 -1.104152,-0.475205 -0.614972,0 -1.090174,0.475205 -0.475207,0.475204 -0.475207,1.090175 z"
       style="font-size:medium;font-style:normal;font-variant:normal;font-weight:normal;font-stretch:normal;writing-mode:lr-tb;fill:#999999;fill-opacity:1;fill-rule:nonzero;stroke:none;font-family:cmr10;-inkscape-font-specification:cmr10" /><path
       inkscape:connector-curvature="0"
       id="path3614"
       d="m 13.322007,41.5647 0,1.006315 q 1.439588,0 2.795321,0.153743 1.355729,0.167717 1.355729,0.754736 l 0,15.723682 q 0,0.614971 -0.349415,0.754736 -0.335438,0.153743 -1.104151,0.153743 l -1.20199,0 q -2.362046,0 -3.354385,-1.034269 -0.517133,-0.517134 -0.740759,-1.663216 -0.223618,-1.132105 -0.377369,-2.851227 l -0.8246178,0 0.5450858,6.555027 17.484734,0 0.545089,-6.555027 -0.838599,0 q -0.167707,1.844911 -0.377366,2.92111 -0.195662,1.090176 -0.726784,1.593333 -1.006317,1.034269 -3.354385,1.034269 l -1.20199,0 q -0.517133,0 -0.810641,-0.04193 -0.279529,-0.04193 -0.46123,-0.251579 -0.181698,-0.195673 -0.181698,-0.614971 l 0,-15.723681 q 0,-0.587018 1.355732,-0.754737 1.35573,-0.153742 2.781343,-0.153742 l 0,-1.006315 -10.957657,0 z"
       style="font-size:medium;font-style:normal;font-variant:normal;font-weight:normal;font-stretch:normal;writing-mode:lr-tb;fill:#999999;fill-opacity:1;fill-rule:nonzero;stroke:none;font-family:cmr10;-inkscape-font-specification:cmr10" /><g
       id="g3570"
       transform="translate(-66.856588,-28.678344)"><path
         inkscape:connector-curvature="0"
         id="path3403"
         d="m 111.98465,44.58314 0,1.006315 q 2.94907,0 2.94907,0.908479 l 0,15.723682 q 0,0.908479 -2.94907,0.908479 l 0,1.006315 8.56766,0 0,-1.006315 q -2.94906,0 -2.94906,-0.908479 l 0,-9.280466 8.84719,8.497775 q 0.36339,0.391346 0.36339,0.782691 0,0.447251 -0.39134,0.670877 -0.37737,0.237602 -0.86655,0.237602 l 0,1.006315 6.21958,0 0,-1.006315 q -2.34807,0 -4.1231,-1.69117 l -5.0735,-4.863859 6.2755,-9.294442 q 0.76871,-1.132105 1.34174,-1.411637 0.58702,-0.279533 1.97071,-0.279533 l 0,-1.006315 -7.49146,0 0,1.006315 q 0.68486,0 1.14608,0.139768 0.47521,0.139765 0.47521,0.6569 0,0.349415 -0.36339,0.894503 l -5.12942,7.603273 -3.20064,-3.088829 0,-5.297134 q 0,-0.908479 2.94906,-0.908479 l 0,-1.006315 -8.56766,0 z"
         style="font-size:medium;font-style:normal;font-variant:normal;font-weight:normal;font-stretch:normal;writing-mode:lr-tb;fill:#000000;fill-opacity:1;fill-rule:nonzero;stroke:none;font-family:cmr10;-inkscape-font-specification:cmr10" /><path
         inkscape:connector-curvature="0"
         d="m 99.966569,45.799871 6.275491,0 -3.14473,9.140699 -3.130761,-9.140699 z m -5.828243,-7.379648 0,1.006316 q 2.557716,0 3.144733,1.691169 L 103.293,58.602442 q 0.0839,0.307485 0.46123,0.307485 l 0.36339,0 q 0.37737,0 0.46123,-0.307485 l 6.2755,-18.267424 q 0.26556,-0.600994 1.00631,-0.754737 0.75474,-0.153742 1.87287,-0.153742 l 0,-1.006316 -7.98065,0 0,1.006316 q 2.37603,0 2.37603,0.768713 l 0,0.139765 -1.5514,4.472514 -6.946379,0 -1.285849,-3.689824 q -0.02787,-0.09784 -0.02787,-0.293509 0,-0.712807 0.670878,-1.062222 0.684854,-0.335438 1.46754,-0.335438 l 0,-1.006316 -6.317422,0 z"
         style="font-size:medium;font-style:normal;font-variant:normal;font-weight:normal;font-stretch:normal;writing-mode:lr-tb;fill:#000000;fill-opacity:1;fill-rule:nonzero;stroke:none;font-family:cmr10;-inkscape-font-specification:cmr10"
         id="path3399" /><path
         inkscape:connector-curvature="0"
         id="path3397"
         d="m 82.147942,44.58314 0,1.006315 q 1.439588,0 2.79532,0.153743 1.35573,0.167717 1.35573,0.754736 l 0,15.723682 q 0,0.614971 -0.349415,0.754736 -0.335438,0.153743 -1.10415,0.153743 l -1.20199,0 q -2.362047,0 -3.354385,-1.034269 -0.517134,-0.517134 -0.74076,-1.663216 -0.223618,-1.132105 -0.377369,-2.851227 l -0.824618,0 0.545087,6.555027 17.484733,0 0.545089,-6.555027 -0.838595,0 q -0.167707,1.844911 -0.37737,2.92111 -0.195661,1.090176 -0.726784,1.593333 -1.006317,1.034269 -3.354385,1.034269 l -1.201987,0 q -0.517136,0 -0.810644,-0.04193 -0.279529,-0.04193 -0.46123,-0.251579 -0.181698,-0.195673 -0.181698,-0.614971 l 0,-15.723681 q 0,-0.587018 1.355732,-0.754737 1.35573,-0.153742 2.781343,-0.153742 l 3e-6,-1.006315 -10.957657,0 z"
         style="font-size:medium;font-style:normal;font-variant:normal;font-weight:normal;font-stretch:normal;writing-mode:lr-tb;fill:#000000;fill-opacity:1;fill-rule:nonzero;stroke:none;font-family:cmr10;-inkscape-font-specification:cmr10" /></g><path
       style="font-size:medium;font-style:normal;font-variant:normal;font-weight:normal;font-stretch:normal;writing-mode:lr-tb;fill:#000000;fill-opacity:1;fill-rule:nonzero;stroke:none;font-family:cmr10;-inkscape-font-specification:cmr10"
       d="m 54.218502,42.98314 q -0.307486,0 -0.307486,0.321462 l 0,0.391344 q 0,0.111812 0.05591,0.167721 l 11.125377,17.666429 -4.025263,0 q -2.01263,0 -3.326432,-0.531111 -1.299824,-0.531111 -1.9707,-1.747076 -0.656901,-1.215964 -0.656901,-3.270525 l -0.838596,0 0.321461,6.555027 13.249821,0 q 0.321463,0 0.321463,-0.321461 l 0,-0.335439 q 0,-0.125789 -0.02787,-0.181696 l -11.139353,-17.624499 4.206959,0 q 1.52345,0 2.739415,0.279532 1.215964,0.279533 2.040582,1.090176 0.573042,0.57304 0.894503,1.43959 0.321463,0.86655 0.4193,1.677193 0.09784,0.810643 0.195661,2.180351 l 0.838596,0 -0.48918,-7.757017 -13.627191,0 z"
       id="path3393"
       inkscape:connector-curvature="0" /><path
       style="font-size:medium;font-style:normal;font-variant:normal;font-weight:normal;font-stretch:normal;writing-mode:lr-tb;fill:#000000;fill-opacity:1;fill-rule:nonzero;stroke:none;font-family:cmr10;-inkscape-font-specification:cmr10"
       d="m 37.57947,43.500274 q 0,0.16772 0.02787,0.251579 l 4.151052,16.548301 q 0.11182,0.489181 0.139779,0.768713 0,0.461229 -1.858891,0.461229 -0.293507,0 -0.293507,0.377368 0.01408,0.06988 0.05591,0.251579 0.05591,0.181695 0.125787,0.279532 0.08387,0.09784 0.223618,0.09784 l 3.857543,0.307487 0.08387,0 q 0,-0.02787 0.09782,-0.08386 0.09784,-0.04191 0.111821,-0.05591 0.05591,-0.139768 0.05591,-0.223626 l -3.00497,-11.963971 q 1.034266,0.433275 2.599647,2.054561 1.579356,1.635263 2.459883,2.34807 0.894502,0.712807 2.236256,0.712807 0.796666,0 1.35573,-0.545088 0.559065,-0.545088 0.559065,-1.341755 0,-0.503156 -0.209655,-0.936431 -0.209654,-0.419299 -0.587017,-0.684854 -0.377368,-0.265555 -0.880524,-0.265555 -0.461231,0 -0.78269,0.279533 -0.307486,0.293508 -0.307486,0.754736 0,0.684854 0.475203,1.146082 0.489184,0.475205 1.174038,0.475205 -0.279531,0.377368 -0.852575,0.377368 -0.852571,0 -1.649239,-0.489181 -0.782691,-0.489182 -1.705146,-1.411638 -0.90848,-0.908479 -1.663218,-1.677192 -0.754734,-0.754736 -1.39766,-1.146082 1.691171,-0.195674 2.935089,-0.894503 1.243918,-0.684853 1.243918,-2.110467 0,-0.293509 -0.111821,-0.74076 -0.251572,-1.076198 -0.251572,-1.719123 0,-1.285847 0.880527,-1.285847 1.034266,0 1.565377,1.132105 0.54509,1.132105 0.894505,2.641578 0.05591,0.16772 0.23761,0.16772 l 0.335438,0 q 0.111821,0 0.181699,-0.06988 0.08387,-0.06988 0.08387,-0.181695 0,-0.02796 -0.02787,-0.08386 -1.076199,-4.360701 -3.326432,-4.360701 -0.810643,0 -1.43959,0.377368 -0.61497,0.377369 -0.950411,1.020293 -0.335439,0.6569 -0.335439,1.467543 0,0.461228 0.125787,0.950409 0.08387,0.335439 0.08387,0.628947 0,1.104152 -0.978361,1.677193 -0.978358,0.573036 -2.236254,0.698826 l -1.45356,-5.842227 q -0.111823,-0.433274 -0.433275,-0.69883 -0.321463,-0.279532 -0.740759,-0.279532 -0.363395,0 -0.628949,0.251579 -0.251572,0.237602 -0.251572,0.587018 z"
       id="path3391"
       inkscape:connector-curvature="0" /><path
       style="font-size:medium;font-style:normal;font-variant:normal;font-weight:normal;font-stretch:normal;writing-mode:lr-tb;fill:#000000;fill-opacity:1;fill-rule:nonzero;stroke:none;font-family:cmr10;-inkscape-font-specification:cmr10"
       d="m 28.983623,42.98314 0,1.006315 q 0.978364,0 1.607311,0.153743 0.628949,0.153742 0.628949,0.754736 l 0,7.812923 q 0,1.104151 -0.433277,1.35573 -0.419298,0.251579 -1.677193,0.251579 l 0,1.006316 4.1231,0.307485 0,-10.734033 q 0,-0.600994 0.545086,-0.754736 0.54509,-0.153743 1.45357,-0.153743 l 0,-1.006316 -6.247546,0 z"
       id="path3389"
       inkscape:connector-curvature="0" /><path
       style="font-size:medium;font-style:normal;font-variant:normal;font-weight:normal;font-stretch:normal;writing-mode:lr-tb;fill:#000000;fill-opacity:1;fill-rule:nonzero;stroke:none;font-family:cmr10;-inkscape-font-specification:cmr10"
       d="m 30.199589,60.551733 q 0,0.628947 0.475205,1.104151 0.475205,0.475205 1.090176,0.475205 0.405321,0 0.782689,-0.209649 0.377369,-0.209648 0.587017,-0.587017 0.209655,-0.377368 0.209655,-0.782689 0,-0.614971 -0.475205,-1.090176 -0.475207,-0.475205 -1.104152,-0.475205 -0.614972,0 -1.090174,0.475205 -0.475207,0.475204 -0.475207,1.090175 z"
       id="path3387"
       inkscape:connector-curvature="0" /><path
       style="font-size:medium;font-style:normal;font-variant:normal;font-weight:normal;font-stretch:normal;writing-mode:lr-tb;fill:#000000;fill-opacity:1;fill-rule:nonzero;stroke:none;font-family:cmr10;-inkscape-font-specification:cmr10"
       d="m 12.266688,42.98314 0,1.006315 q 1.439588,0 2.795321,0.153743 1.355729,0.167717 1.355729,0.754736 l 0,15.723682 q 0,0.614971 -0.349415,0.754736 -0.335438,0.153743 -1.104151,0.153743 l -1.20199,0 q -2.362046,0 -3.354385,-1.034269 Q 9.8906641,59.978692 9.6670381,58.83261 9.4434201,57.700505 9.2896691,55.981383 l -0.824618,0 0.545086,6.555027 17.4847339,0 0.545089,-6.555027 -0.838599,0 q -0.167707,1.844911 -0.377366,2.92111 -0.195662,1.090176 -0.726784,1.593333 -1.006317,1.034269 -3.354385,1.034269 l -1.20199,0 q -0.517133,0 -0.810641,-0.04193 -0.279529,-0.04193 -0.46123,-0.251579 -0.181698,-0.195673 -0.181698,-0.614971 l 0,-15.723681 q 0,-0.587018 1.355732,-0.754737 1.35573,-0.153742 2.781343,-0.153742 l 0,-1.006315 -10.957657,0 z"
       id="path3381"
       inkscape:connector-curvature="0" /><g
       id="g3528"
       transform="translate(85.429214,23.442697)"><g
         id="g3488"><path
           inkscape:connector-curvature="0"
           id="path3490"
           d="m 78.295504,5.68655 q -0.06129,0 -0.06129,0.061293 0,0.030647 0.01362,0.044267 1.191812,1.1645702 1.191812,3.3813396 0,2.2167694 -1.178191,3.3677194 -0.02724,0.01703 -0.02724,0.05789 0,0.02384 0.01703,0.04086 0.02043,0.02043 0.04427,0.02043 l 0.0647,0 q 0.02043,0 0.03405,-0.01362 0.50056,-0.395001 0.834268,-0.96026 0.333707,-0.565259 0.48694,-1.205432 0.156638,-0.6401733 0.156638,-1.3075878 0,-0.4937505 -0.08513,-0.9738802 Q 79.705261,7.7228443 79.521377,7.2597404 79.340902,6.7932313 79.061678,6.4016361 78.782454,6.0066357 78.394264,5.7001699 q -0.01362,-0.013621 -0.03405,-0.013621 l -0.0647,0 z"
           style="font-size:medium;font-style:normal;font-variant:normal;font-weight:normal;font-stretch:normal;writing-mode:lr-tb;fill:#000000;fill-opacity:1;fill-rule:nonzero;stroke:none;font-family:cmr10;-inkscape-font-specification:cmr10" /><path
           inkscape:connector-curvature="0"
           id="path3492"
           d="m 74.909985,7.43 0,0.2451727 q 0.238362,0 0.391595,0.037457 0.153233,0.037457 0.153233,0.1838794 l 0,1.9034934 q 0,0.1872847 -0.05789,0.2690085 -0.05448,0.08513 -0.160043,0.102156 -0.105561,0.02043 -0.326897,0.02043 l 0,0.245172 0.997716,0.07491 0,-0.6810348 q 0.112371,0.3030608 0.320087,0.4903448 0.207715,0.19069 0.503966,0.19069 0.207715,0 0.371164,-0.122586 0.163448,-0.122586 0.163448,-0.323492 0,-0.1259912 -0.09194,-0.2213361 -0.08854,-0.09194 -0.221337,-0.09194 -0.129397,0 -0.221336,0.09194 -0.09194,0.09194 -0.09194,0.2213361 0,0.187285 0.132802,0.265604 l -0.04086,0 q -0.28263,0 -0.463104,-0.204311 Q 76.09158,9.9225888 76.016666,9.6195282 75.941756,9.3164675 75.941756,9.0406483 l 0,-1.1441392 q 0,-0.2213364 0.67763,-0.2213364 l -3e-6,-0.2451727 -1.709398,0 z"
           style="font-size:medium;font-style:normal;font-variant:normal;font-weight:normal;font-stretch:normal;writing-mode:lr-tb;fill:#000000;fill-opacity:1;fill-rule:nonzero;stroke:none;font-family:cmr10;-inkscape-font-specification:cmr10" /><path
           inkscape:connector-curvature="0"
           d="m 71.602415,8.1144403 q 0,-0.2451726 0.180475,-0.4120262 0.180474,-0.1668537 0.425647,-0.1668537 0.224741,0 0.408621,0.1123709 0.183879,0.1123708 0.292845,0.3064658 0.108965,0.194095 0.108965,0.4086211 l 0,0.7253024 q -0.316681,0 -0.650388,-0.1055604 Q 72.038278,8.8806049 71.820347,8.6592685 71.602415,8.4379321 71.602415,8.1144403 z m -0.565259,0 q 0,0.4154315 0.326897,0.6742249 0.326897,0.2621985 0.78319,0.367759 0.459699,0.1089656 0.871725,0.1089656 l 0,0.2860348 q 0,0.2009053 -0.08853,0.38819 -0.08854,0.1906894 -0.255388,0.3098714 -0.166854,0.122586 -0.367759,0.122586 -0.463104,0 -0.704872,-0.207716 0.132802,0 0.217932,-0.102155 0.08853,-0.09875 0.08853,-0.231552 0,-0.1396122 -0.09875,-0.2383623 -0.09875,-0.09875 -0.234957,-0.09875 -0.139612,0 -0.238362,0.09875 -0.09875,0.09875 -0.09875,0.2383623 0,0.367759 0.333707,0.544828 0.333707,0.180474 0.735518,0.180474 0.282629,0 0.568664,-0.122586 0.286035,-0.119181 0.466509,-0.343923 0.18388,-0.2247413 0.18388,-0.5243967 l 0,-1.5697861 q 0,-0.136207 0.05789,-0.251983 0.05789,-0.1123708 0.180474,-0.1123708 0.115776,0 0.170259,0.115776 0.05789,0.1157759 0.05789,0.2485778 l 0,0.446078 0.20431,0 0,-0.446078 q 0,-0.1566381 -0.08172,-0.2996555 -0.08172,-0.1396122 -0.221336,-0.2247416 -0.136207,-0.081724 -0.296251,-0.081724 -0.20431,0 -0.354138,0.1566381 -0.146422,0.1600432 -0.163448,0.3779745 -0.129397,-0.2621985 -0.38138,-0.4188366 -0.251983,-0.153233 -0.538018,-0.153233 -0.265604,0 -0.524397,0.078319 -0.255388,0.078319 -0.429052,0.2451727 -0.170259,0.1702588 -0.170259,0.4392676 z"
           style="font-size:medium;font-style:normal;font-variant:normal;font-weight:normal;font-stretch:normal;writing-mode:lr-tb;fill:#000000;fill-opacity:1;fill-rule:nonzero;stroke:none;font-family:cmr10;-inkscape-font-specification:cmr10"
           id="path3494" /><path
           inkscape:connector-curvature="0"
           d="m 67.348371,8.0361213 q 0.119181,-0.2281468 0.316681,-0.3643538 0.200906,-0.1362071 0.435863,-0.1362071 0.28944,0 0.531207,0.1668537 0.241768,0.1668536 0.360949,0.4324573 l 0,1.6719414 q -0.08172,0.1532329 -0.207716,0.2724142 -0.122586,0.122586 -0.279224,0.187285 -0.153233,0.0647 -0.326897,0.0647 -0.364354,0 -0.58569,-0.207716 -0.221337,-0.2043107 -0.309871,-0.5243973 -0.08854,-0.3200865 -0.08854,-0.6708196 0,-0.2792244 0.02724,-0.4869402 0.03065,-0.2077157 0.125992,-0.4052159 z m 0.711682,-0.6844404 q -0.412027,0 -0.752544,0.2213365 -0.340518,0.2247416 -0.531208,0.5890954 -0.187284,0.3643538 -0.187284,0.7729749 0,0.4222418 0.20431,0.7831905 0.207716,0.3643538 0.561854,0.5788798 0.354139,0.214526 0.779786,0.214526 0.255388,0 0.483535,-0.108966 0.228146,-0.10556 0.395,-0.29625 l 0,1.450605 q 0,0.187285 -0.05789,0.269009 -0.05448,0.08513 -0.160043,0.102155 -0.102156,0.02043 -0.323492,0.02043 l 0,0.245173 1.031768,0.07491 0,-4.2053923 q 0,-0.1838795 0.05448,-0.2690089 0.05789,-0.081724 0.160043,-0.1021553 0.105561,-0.017026 0.326897,-0.017026 l 0,-0.2451726 -1.052199,-0.078319 0,0.4392677 Q 68.812592,7.5832329 68.564014,7.4674569 68.315436,7.3516809 68.060048,7.3516809 z"
           style="font-size:medium;font-style:normal;font-variant:normal;font-weight:normal;font-stretch:normal;writing-mode:lr-tb;fill:#000000;fill-opacity:1;fill-rule:nonzero;stroke:none;font-family:cmr10;-inkscape-font-specification:cmr10"
           id="path3496" /><path
           inkscape:connector-curvature="0"
           id="path3498"
           d="m 62.164712,7.43 0,0.2451727 q 0.238362,0 0.391595,0.037457 0.153233,0.037457 0.153233,0.1838794 l 0,1.9034934 q 0,0.1872847 -0.05789,0.2690085 -0.05448,0.08513 -0.160043,0.102156 -0.105561,0.02043 -0.326897,0.02043 l 0,0.245172 1.011337,0.07491 0,-0.6810348 q 0.139612,0.2996558 0.412026,0.4903448 0.275819,0.19069 0.599311,0.19069 0.483535,0 0.725303,-0.231552 0.245172,-0.231552 0.245172,-0.7082762 l 0,-1.6753466 q 0,-0.1464225 0.153233,-0.1838794 0.153233,-0.037457 0.391595,-0.037457 l 0,-0.2451727 -1.597027,0 0,0.2451727 q 0.238362,0 0.391595,0.037457 0.153233,0.037457 0.153233,0.1838794 l 0,1.6549156 q 0,0.3405176 -0.09875,0.5584482 -0.09875,0.221337 -0.405216,0.221337 -0.405216,0 -0.667414,-0.323492 -0.258794,-0.3234914 -0.258794,-0.7355177 l 0,-1.3756911 q 0,-0.1464225 0.153233,-0.1838794 0.153233,-0.037457 0.38819,-0.037457 l 2e-6,-0.2451728 -1.597027,0 z"
           style="font-size:medium;font-style:normal;font-variant:normal;font-weight:normal;font-stretch:normal;writing-mode:lr-tb;fill:#000000;fill-opacity:1;fill-rule:nonzero;stroke:none;font-family:cmr10;-inkscape-font-specification:cmr10" /><path
           inkscape:connector-curvature="0"
           d="m 59.225436,9.2143123 1.590217,0 q 0,0.2621985 -0.07491,0.5312074 -0.07151,0.2690093 -0.241768,0.4460783 -0.170258,0.180474 -0.446078,0.180474 -0.395,0 -0.612931,-0.371164 Q 59.22544,9.6331488 59.22544,9.2143122 z M 60.151643,7.351681 q -0.425647,0 -0.78319,0.2213365 -0.354138,0.2247416 -0.558449,0.5959058 -0.200905,0.3745693 -0.200905,0.7900008 0,0.4086211 0.183879,0.7763801 0.187285,0.3677588 0.517587,0.5925008 0.333707,0.228146 0.742328,0.228146 0.320087,0 0.555044,-0.108965 0.238362,-0.105561 0.391595,-0.29625 0.153233,-0.1906902 0.231552,-0.4494836 0.07832,-0.2587934 0.07832,-0.5686644 0,-0.09194 -0.07151,-0.09194 l -2.01927,0 0,-0.074914 q 0,-0.5788799 0.231552,-0.9943113 0.234957,-0.4154315 0.76276,-0.4154315 0.214526,0 0.395,0.095345 0.18388,0.095345 0.316681,0.2656037 0.136207,0.1702588 0.18388,0.3643539 0.0068,0.023836 0.02384,0.040862 0.02043,0.020431 0.04427,0.020431 l 0.06129,0 q 0.07151,0 0.07151,-0.088535 Q 61.210657,7.8590517 60.88376,7.6036636 60.556863,7.3516805 60.151647,7.3516805 z"
           style="font-size:medium;font-style:normal;font-variant:normal;font-weight:normal;font-stretch:normal;writing-mode:lr-tb;fill:#000000;fill-opacity:1;fill-rule:nonzero;stroke:none;font-family:cmr10;-inkscape-font-specification:cmr10"
           id="path3500" /><path
           inkscape:connector-curvature="0"
           id="path3502"
           d="m 56.374203,7.43 0,0.2451727 q 0.238362,0 0.391595,0.037457 0.153233,0.037457 0.153233,0.1838794 l 0,3.6605639 q 0,0.187285 -0.05789,0.269009 -0.05448,0.08513 -0.160043,0.102155 -0.105561,0.02043 -0.326897,0.02043 l 0,0.245173 1.035173,0.07491 0,-4.3722459 q 0,-0.1464225 0.153233,-0.1838794 0.153233,-0.037457 0.38819,-0.037457 l 2e-6,-0.2451727 -1.576596,0 z"
           style="font-size:medium;font-style:normal;font-variant:normal;font-weight:normal;font-stretch:normal;writing-mode:lr-tb;fill:#000000;fill-opacity:1;fill-rule:nonzero;stroke:none;font-family:cmr10;-inkscape-font-specification:cmr10" /><path
           inkscape:connector-curvature="0"
           d="m 53.032581,8.1144403 q 0,-0.2451726 0.180474,-0.4120262 0.180475,-0.1668537 0.425647,-0.1668537 0.224742,0 0.408622,0.1123709 0.183879,0.1123708 0.292845,0.3064658 0.108965,0.194095 0.108965,0.4086211 l 0,0.7253024 q -0.316681,0 -0.650388,-0.1055604 Q 53.468444,8.8806049 53.250512,8.6592685 53.032581,8.4379321 53.032581,8.1144403 z m -0.565259,0 q 0,0.4154315 0.326897,0.6742249 0.326897,0.2621985 0.78319,0.367759 0.459699,0.1089656 0.871725,0.1089656 l 0,0.2860348 q 0,0.2009053 -0.08854,0.38819 -0.08854,0.1906894 -0.255388,0.3098714 -0.166853,0.122586 -0.367759,0.122586 -0.463104,0 -0.704871,-0.207716 0.132802,0 0.217931,-0.102155 0.08853,-0.09875 0.08853,-0.231552 0,-0.1396122 -0.09875,-0.2383623 -0.09875,-0.09875 -0.234957,-0.09875 -0.139612,0 -0.238362,0.09875 -0.09875,0.09875 -0.09875,0.2383623 0,0.367759 0.333707,0.544828 0.333707,0.180474 0.735518,0.180474 0.282629,0 0.568664,-0.122586 0.286035,-0.119181 0.466509,-0.343923 0.18388,-0.2247413 0.18388,-0.5243967 l 0,-1.5697861 q 0,-0.136207 0.05789,-0.251983 0.05789,-0.1123708 0.180474,-0.1123708 0.115776,0 0.170259,0.115776 0.05789,0.1157759 0.05789,0.2485778 l 0,0.446078 0.20431,0 0,-0.446078 q 0,-0.1566381 -0.08172,-0.2996555 -0.08172,-0.1396122 -0.221336,-0.2247416 -0.136207,-0.081724 -0.29625,-0.081724 -0.204311,0 -0.354139,0.1566381 -0.146426,0.1600432 -0.163452,0.3779745 -0.129396,-0.2621985 -0.381379,-0.4188366 -0.251983,-0.153233 -0.538018,-0.153233 -0.265604,0 -0.524397,0.078319 -0.255388,0.078319 -0.429052,0.2451727 -0.170259,0.1702588 -0.170259,0.4392676 z"
           style="font-size:medium;font-style:normal;font-variant:normal;font-weight:normal;font-stretch:normal;writing-mode:lr-tb;fill:#000000;fill-opacity:1;fill-rule:nonzero;stroke:none;font-family:cmr10;-inkscape-font-specification:cmr10"
           id="path3504" /><path
           inkscape:connector-curvature="0"
           id="path3506"
           d="m 50.382744,7.3516809 q -0.422242,0 -0.766165,0.2179313 -0.343922,0.2213364 -0.541423,0.5856903 -0.1975,0.367759 -0.1975,0.7797852 0,0.4120263 0.194095,0.7900008 0.197501,0.3779745 0.541423,0.6027165 0.347328,0.228146 0.76957,0.228146 0.408621,0 0.742328,-0.160043 0.337113,-0.160043 0.337113,-0.5243969 0,-0.136207 -0.09875,-0.2383623 -0.09535,-0.09875 -0.234957,-0.09875 -0.139613,0 -0.238363,0.09875 -0.09535,0.1021553 -0.09535,0.2383623 0,0.1225863 0.07832,0.2111209 0.07832,0.09194 0.194095,0.115776 -0.241767,0.153233 -0.67763,0.153233 -0.333707,0 -0.538017,-0.221337 -0.204311,-0.221336 -0.286035,-0.5482328 -0.08172,-0.3268969 -0.08172,-0.6469835 0,-0.3371124 0.09875,-0.6537937 0.102155,-0.3132762 0.323491,-0.5209919 0.224742,-0.2043106 0.561854,-0.2043106 0.330302,0 0.561854,0.2009054 0.231552,0.2043105 0.316682,0.5312074 0,0.040862 0.05448,0.040862 l 0.08513,0 q 0.02043,0 0.03746,-0.020431 0.01703,-0.017026 0.01703,-0.040862 l 0,-0.020431 Q 51.434943,7.8352159 51.121667,7.5934484 50.808391,7.3516809 50.382744,7.3516809 z"
           style="font-size:medium;font-style:normal;font-variant:normal;font-weight:normal;font-stretch:normal;writing-mode:lr-tb;fill:#000000;fill-opacity:1;fill-rule:nonzero;stroke:none;font-family:cmr10;-inkscape-font-specification:cmr10" /><path
           inkscape:connector-curvature="0"
           id="path3508"
           d="m 47.695287,5.7001707 q -0.38819,0.3064658 -0.67082,0.7048714 -0.279224,0.3950004 -0.459699,0.8444836 -0.177069,0.4494832 -0.265603,0.9398285 -0.08854,0.4903453 -0.08854,0.9840958 0,0.5005609 0.08854,0.990906 0.08853,0.490346 0.269008,0.943234 0.18388,0.452888 0.46651,0.847889 0.282629,0.395 0.660604,0.69125 0,0.01362 0.03405,0.01362 l 0.0647,0 q 0.02043,0 0.03746,-0.02043 0.01703,-0.01703 0.01703,-0.04086 0,-0.03065 -0.01362,-0.04427 -0.340518,-0.333707 -0.568665,-0.715087 -0.224741,-0.381379 -0.364353,-0.813837 -0.136208,-0.429052 -0.197501,-0.892156 -0.06129,-0.4596984 -0.06129,-0.9602593 0,-2.2167695 1.185001,-3.3677189 0.02043,-0.020431 0.02043,-0.057888 0,-0.017026 -0.02043,-0.037457 -0.01703,-0.023836 -0.03405,-0.023836 l -0.0647,0 q -0.03405,0 -0.03405,0.013621 z"
           style="font-size:medium;font-style:normal;font-variant:normal;font-weight:normal;font-stretch:normal;writing-mode:lr-tb;fill:#000000;fill-opacity:1;fill-rule:nonzero;stroke:none;font-family:cmr10;-inkscape-font-specification:cmr10" /></g><path
         style="font-size:medium;font-style:normal;font-variant:normal;font-weight:normal;font-stretch:normal;writing-mode:lr-tb;fill:#000000;fill-opacity:1;fill-rule:nonzero;stroke:none;font-family:cmr10;-inkscape-font-specification:cmr10"
         d="m 38.090467,3.141 0,0.3502477 q 1.02642,0 1.02642,0.3161957 l 0,5.4726195 q 0,0.3161958 -1.02642,0.3161958 l 0,0.3502477 2.981969,0 0,-0.3502477 q -1.02642,0 -1.02642,-0.3161958 l 0,-3.2300616 3.079261,2.9576468 q 0.126478,0.1362074 0.126478,0.2724148 0,0.1556657 -0.136207,0.2334985 -0.131343,0.082697 -0.301603,0.082697 l 0,0.3502477 2.164726,0 0,-0.3502477 q -0.817245,0 -1.435043,-0.5886106 L 41.777796,7.3147842 43.961979,4.079858 q 0.267551,-0.3940286 0.466997,-0.4913196 0.204311,-0.097291 0.685902,-0.097291 l 0,-0.3502477 -2.607399,0 0,0.3502477 q 0.238363,0 0.398893,0.048646 0.165395,0.048645 0.165395,0.2286338 0,0.1216138 -0.126479,0.3113313 l -1.78529,2.6463155 -1.113982,-1.0750657 0,-1.8436647 q 0,-0.3161957 1.02642,-0.3161957 l 0,-0.3502474 -2.981969,0 z"
         id="path3510"
         inkscape:connector-curvature="0" /><path
         id="path3512"
         style="font-size:medium;font-style:normal;font-variant:normal;font-weight:normal;font-stretch:normal;writing-mode:lr-tb;fill:#000000;fill-opacity:1;fill-rule:nonzero;stroke:none;font-family:cmr10;-inkscape-font-specification:cmr10"
         d="m 33.907578,3.5644828 2.184183,0 -1.094523,3.1814161 -1.08966,-3.1814161 z M 31.879061,0.996 l 0,0.3502477 q 0.890212,0 1.094523,0.5886106 l 2.091757,6.0855529 q 0.02919,0.1070201 0.16053,0.1070201 l 0.126479,0 q 0.131343,0 0.16053,-0.1070201 l 2.184183,-6.3579677 q 0.09243,-0.2091757 0.350248,-0.2626858 0.262686,-0.05351 0.65185,-0.05351 l 0,-0.3502477 -2.777659,0 0,0.3502477 q 0.826974,0 0.826974,0.2675503 l 0,0.048645 -0.539965,1.5566562 -2.417682,0 -0.447539,-1.2842414 q -0.0097,-0.034052 -0.0097,-0.1021556 0,-0.2480921 0.233499,-0.3697058 0.238363,-0.1167492 0.510777,-0.1167492 l 0,-0.3502477 -2.198776,0 z"
         inkscape:connector-curvature="0" /><path
         style="font-size:medium;font-style:normal;font-variant:normal;font-weight:normal;font-stretch:normal;writing-mode:lr-tb;fill:#000000;fill-opacity:1;fill-rule:nonzero;stroke:none;font-family:cmr10;-inkscape-font-specification:cmr10"
         d="m 27.705814,3.141 0,0.3502477 q 0.501048,0 0.97291,0.05351 0.471861,0.058374 0.471861,0.2626857 l 0,5.4726195 q 0,0.2140403 -0.121614,0.2626858 -0.116749,0.05351 -0.384299,0.05351 l -0.418352,0 q -0.822109,0 -1.167492,-0.3599767 Q 26.87884,9.0562936 26.801007,8.6574004 26.723177,8.2633718 26.669664,7.6650321 l -0.287008,0 0.189717,2.2814743 6.085553,0 0.189718,-2.2814743 -0.291873,0 q -0.05837,0.6421207 -0.131343,1.0166911 -0.0681,0.379435 -0.252957,0.5545588 -0.350248,0.3599767 -1.167492,0.3599767 l -0.418351,0 q -0.179989,0 -0.282144,-0.014594 -0.09729,-0.014594 -0.160531,-0.087562 -0.06324,-0.068104 -0.06324,-0.2140403 l 0,-5.4726195 q 0,-0.2043111 0.471862,-0.2626857 0.471861,-0.05351 0.968045,-0.05351 l 1e-6,-0.3502472 -3.813807,0 z"
         id="path3514"
         inkscape:connector-curvature="0" /><path
         style="font-size:medium;font-style:normal;font-variant:normal;font-weight:normal;font-stretch:normal;writing-mode:lr-tb;fill:#000000;fill-opacity:1;fill-rule:nonzero;stroke:none;font-family:cmr10;-inkscape-font-specification:cmr10"
         d="m 22.814029,4.9846647 0,0.6177979 2.636587,0 0,-0.6177979 -2.636587,0 z"
         id="path3516"
         inkscape:connector-curvature="0" /><path
         style="font-size:medium;font-style:normal;font-variant:normal;font-weight:normal;font-stretch:normal;writing-mode:lr-tb;fill:#000000;fill-opacity:1;fill-rule:nonzero;stroke:none;font-family:cmr10;-inkscape-font-specification:cmr10"
         d="m 17.280443,3.141 q -0.10702,0 -0.10702,0.1118847 l 0,0.1362074 q 0,0.038916 0.01946,0.058375 l 3.872182,6.148792 -1.400991,0 q -0.700495,0 -1.157763,-0.1848529 Q 18.053908,9.2265533 17.82041,8.8033374 17.591776,8.3801215 17.591776,7.6650325 l -0.291873,0 0.111884,2.2814743 4.611594,0 q 0.111885,0 0.111885,-0.1118847 l 0,-0.1167492 q 0,-0.043781 -0.0097,-0.063239 l -3.877047,-6.1341984 1.46423,0 q 0.530236,0 0.953452,0.097291 0.423216,0.097291 0.710224,0.379435 0.199447,0.1994466 0.311331,0.5010487 0.111885,0.3016022 0.145937,0.5837461 0.03405,0.282144 0.0681,0.7588699 l 0.291873,0 -0.170259,-2.6998258 -4.742937,0 z"
         id="path3518"
         inkscape:connector-curvature="0" /><path
         style="font-size:medium;font-style:normal;font-variant:normal;font-weight:normal;font-stretch:normal;writing-mode:lr-tb;fill:#000000;fill-opacity:1;fill-rule:nonzero;stroke:none;font-family:cmr10;-inkscape-font-specification:cmr10"
         d="m 11.489236,3.3209884 q 0,0.058375 0.0097,0.087562 l 1.444772,5.759628 q 0.03892,0.1702592 0.04865,0.2675503 0,0.1605301 -0.646986,0.1605301 -0.102155,0 -0.102155,0.1313429 0.0049,0.024323 0.01946,0.087562 0.01946,0.063239 0.04378,0.097291 0.02919,0.034052 0.07783,0.034052 l 1.342616,0.1070203 0.02919,0 q 0,-0.0097 0.03405,-0.02919 0.03405,-0.01459 0.03892,-0.01946 0.01946,-0.048646 0.01946,-0.077833 L 12.802645,5.7629934 q 0.359976,0.1508011 0.904806,0.715089 0.549694,0.5691524 0.856161,0.8172445 0.311331,0.248092 0.778328,0.248092 0.277279,0 0.471861,-0.1897174 0.194582,-0.1897175 0.194582,-0.4669969 0,-0.1751238 -0.07297,-0.3259249 -0.07297,-0.1459365 -0.204311,-0.238363 -0.131343,-0.092426 -0.306466,-0.092426 -0.160531,0 -0.272415,0.097291 -0.10702,0.1021555 -0.10702,0.2626857 0,0.238363 0.165394,0.3988932 0.17026,0.1653947 0.408623,0.1653947 -0.09729,0.1313429 -0.296738,0.1313429 -0.296737,0 -0.574017,-0.1702593 Q 14.476048,6.9450796 14.154988,6.6240193 13.838792,6.3078235 13.576106,6.0402732 13.313421,5.7775875 13.089651,5.64138 q 0.588611,-0.068104 1.021556,-0.3113312 0.432945,-0.238363 0.432945,-0.7345472 0,-0.1021555 -0.03892,-0.2578211 -0.08756,-0.3745704 -0.08756,-0.5983398 0,-0.4475386 0.306467,-0.4475386 0.359976,0 0.544829,0.3940286 0.189718,0.3940286 0.311332,0.9194 0.01946,0.058375 0.0827,0.058375 l 0.116749,0 q 0.03892,0 0.06324,-0.024323 0.02919,-0.024323 0.02919,-0.063239 0,-0.00973 -0.0097,-0.029187 -0.374571,-1.5177398 -1.157763,-1.5177398 -0.282144,0 -0.501049,0.1313429 -0.21404,0.1313429 -0.33079,0.3551122 -0.116749,0.2286339 -0.116749,0.5107778 0,0.1605302 0.04378,0.3307895 0.02919,0.1167492 0.02919,0.2189047 0,0.3842995 -0.340518,0.5837461 -0.340517,0.1994451 -0.778327,0.2432261 L 12.20434,3.369634 q -0.03892,-0.1508011 -0.150801,-0.2432275 -0.111885,-0.097291 -0.257821,-0.097291 -0.126479,0 -0.218905,0.087562 -0.08756,0.082697 -0.08756,0.2043111 z"
         id="path3520"
         inkscape:connector-curvature="0" /><path
         style="font-size:medium;font-style:normal;font-variant:normal;font-weight:normal;font-stretch:normal;writing-mode:lr-tb;fill:#000000;fill-opacity:1;fill-rule:nonzero;stroke:none;font-family:cmr10;-inkscape-font-specification:cmr10"
         d="m 8.497456,3.141 0,0.3502477 q 0.340519,0 0.559424,0.05351 0.218905,0.05351 0.218905,0.2626857 l 0,2.7192839 q 0,0.3842995 -0.150802,0.4718613 -0.145936,0.087562 -0.583746,0.087562 l 0,0.3502476 1.435043,0.1070201 0,-3.7359749 q 0,-0.2091757 0.189717,-0.2626858 0.189718,-0.05351 0.505914,-0.05351 l 0,-0.3502478 -2.174455,0 z"
         id="path3522"
         inkscape:connector-curvature="0" /><path
         style="font-size:medium;font-style:normal;font-variant:normal;font-weight:normal;font-stretch:normal;writing-mode:lr-tb;fill:#000000;fill-opacity:1;fill-rule:nonzero;stroke:none;font-family:cmr10;-inkscape-font-specification:cmr10"
         d="m 8.920672,9.2557402 q 0,0.2189048 0.165395,0.3842995 0.165395,0.1653947 0.379435,0.1653947 0.141072,0 0.272415,-0.072968 0.131343,-0.072968 0.204311,-0.2043111 0.07297,-0.1313428 0.07297,-0.2724148 0,-0.2140402 -0.165395,-0.379435 -0.165395,-0.1653947 -0.384299,-0.1653947 -0.214041,0 -0.379435,0.1653947 Q 8.920674,9.0417 8.920674,9.2557402 z"
         id="path3524"
         inkscape:connector-curvature="0" /><path
         style="font-size:medium;font-style:normal;font-variant:normal;font-weight:normal;font-stretch:normal;writing-mode:lr-tb;fill:#000000;fill-opacity:1;fill-rule:nonzero;stroke:none;font-family:cmr10;-inkscape-font-specification:cmr10"
         d="m 2.679135,3.141 0,0.3502477 q 0.501048,0 0.97291,0.05351 0.471861,0.058374 0.471861,0.2626857 l 0,5.4726195 q 0,0.2140403 -0.121614,0.2626858 -0.116749,0.05351 -0.384299,0.05351 l -0.418352,0 q -0.822109,0 -1.167492,-0.3599767 Q 1.852161,9.0562936 1.774328,8.6574004 1.696498,8.2633718 1.642985,7.6650321 l -0.287008,0 0.189717,2.2814743 6.085553,0 0.189718,-2.2814743 -0.291874,0 Q 7.470721,8.3071528 7.397749,8.6817232 7.329649,9.0611582 7.144792,9.236282 6.794544,9.5962587 5.9773,9.5962587 l -0.418352,0 q -0.179988,0 -0.282143,-0.014594 -0.09729,-0.014594 -0.160531,-0.087562 -0.06324,-0.068104 -0.06324,-0.2140403 l 0,-5.4726195 q 0,-0.2043111 0.471862,-0.2626857 0.471861,-0.05351 0.968045,-0.05351 l 0,-0.3502472 -3.813807,0 z"
         id="path3526"
         inkscape:connector-curvature="0" /></g></g></svg>