<?xml version="1.0" encoding="UTF-8" standalone="no"?>
<!-- Created with Inkscape (http://www.inkscape.org/) -->

<svg
   xmlns:dc="http://purl.org/dc/elements/1.1/"
   xmlns:cc="http://creativecommons.org/ns#"
   xmlns:rdf="http://www.w3.org/1999/02/22-rdf-syntax-ns#"
   xmlns:svg="http://www.w3.org/2000/svg"
   xmlns="http://www.w3.org/2000/svg"
   xmlns:sodipodi="http://sodipodi.sourceforge.net/DTD/sodipodi-0.dtd"
   xmlns:inkscape="http://www.inkscape.org/namespaces/inkscape"
   id="svg2"
   version="1.1"
   inkscape:version="0.91 r13725"
   xml:space="preserve"
   width="102.44"
   height="17.071251"
   viewBox="0 0 102.44 17.071251"
   sodipodi:docname="tikz-tak.svg"><metadata
     id="metadata8"><rdf:RDF><cc:Work
         rdf:about=""><dc:format>image/svg+xml</dc:format><dc:type
           rdf:resource="http://purl.org/dc/dcmitype/StillImage" /><dc:title /></cc:Work></rdf:RDF></metadata><defs
     id="defs6" /><sodipodi:namedview
     pagecolor="#ffffff"
     bordercolor="#666666"
     borderopacity="1"
     objecttolerance="10"
     gridtolerance="10"
     guidetolerance="10"
     inkscape:pageopacity="0"
     inkscape:pageshadow="2"
     inkscape:window-width="1366"
     inkscape:window-height="718"
     id="namedview4"
     showgrid="false"
     inkscape:zoom="7.0606089"
     inkscape:cx="50.767555"
     inkscape:cy="8.5352187"
     inkscape:window-x="0"
     inkscape:window-y="26"
     inkscape:window-maximized="1"
     inkscape:current-layer="g10" /><g
     id="g10"
     inkscape:groupmode="layer"
     inkscape:label="logo-tikz-tak"
     transform="matrix(1.25,0,0,-1.25,0,17.07125)"><g
       transform="matrix(1,0,0,-1,0.996,3.141)"
       style="font-variant:normal;font-weight:normal;font-size:9.96259975px;font-family:CMR10;-inkscape-font-specification:CMR10;writing-mode:lr-tb;fill:#000000;fill-opacity:1;fill-rule:nonzero;stroke:none"
       id="text12" /><g
       transform="matrix(1,0,0,-1,16.614,3.141)"
       style="font-variant:normal;font-weight:normal;font-size:9.96259975px;font-family:CMR10;-inkscape-font-specification:CMR10;writing-mode:lr-tb;fill:#000000;fill-opacity:1;fill-rule:nonzero;stroke:none"
       id="text20" /><path
       style="font-style:normal;font-variant:normal;font-weight:normal;font-stretch:normal;font-size:medium;font-family:cmr10;-inkscape-font-specification:cmr10;writing-mode:lr-tb;fill:#000000;fill-opacity:1;fill-rule:nonzero;stroke:none"
       d="m 78.295504,5.68655 q -0.06129,0 -0.06129,0.061293 0,0.030647 0.01362,0.044267 1.191812,1.1645702 1.191812,3.3813396 0,2.2167694 -1.178191,3.3677194 -0.02724,0.01703 -0.02724,0.05789 0,0.02384 0.01703,0.04086 0.02043,0.02043 0.04427,0.02043 l 0.0647,0 q 0.02043,0 0.03405,-0.01362 0.50056,-0.395001 0.834268,-0.96026 0.333707,-0.565259 0.48694,-1.205432 0.156638,-0.6401733 0.156638,-1.3075878 0,-0.4937505 -0.08513,-0.9738802 Q 79.705261,7.7228443 79.521377,7.2597404 79.340902,6.7932313 79.061678,6.4016361 78.782454,6.0066357 78.394264,5.7001699 q -0.01362,-0.013621 -0.03405,-0.013621 l -0.0647,0 z"
       id="path3431" /><path
       style="font-style:normal;font-variant:normal;font-weight:normal;font-stretch:normal;font-size:medium;font-family:cmr10;-inkscape-font-specification:cmr10;writing-mode:lr-tb;fill:#000000;fill-opacity:1;fill-rule:nonzero;stroke:none"
       d="m 74.909985,7.43 0,0.2451727 q 0.238362,0 0.391595,0.037457 0.153233,0.037457 0.153233,0.1838794 l 0,1.9034934 q 0,0.1872847 -0.05789,0.2690085 -0.05448,0.08513 -0.160043,0.102156 -0.105561,0.02043 -0.326897,0.02043 l 0,0.245172 0.997716,0.07491 0,-0.6810348 q 0.112371,0.3030608 0.320087,0.4903448 0.207715,0.19069 0.503966,0.19069 0.207715,0 0.371164,-0.122586 0.163448,-0.122586 0.163448,-0.323492 0,-0.1259912 -0.09194,-0.2213361 -0.08854,-0.09194 -0.221337,-0.09194 -0.129397,0 -0.221336,0.09194 -0.09194,0.09194 -0.09194,0.2213361 0,0.187285 0.132802,0.265604 l -0.04086,0 q -0.28263,0 -0.463104,-0.204311 Q 76.09158,9.9225888 76.016666,9.6195282 75.941756,9.3164675 75.941756,9.0406483 l 0,-1.1441392 q 0,-0.2213364 0.67763,-0.2213364 l -3e-6,-0.2451727 -1.709398,0 z"
       id="path3429" /><path
       id="path3425"
       style="font-style:normal;font-variant:normal;font-weight:normal;font-stretch:normal;font-size:medium;font-family:cmr10;-inkscape-font-specification:cmr10;writing-mode:lr-tb;fill:#000000;fill-opacity:1;fill-rule:nonzero;stroke:none"
       d="m 71.602415,8.1144403 q 0,-0.2451726 0.180475,-0.4120262 0.180474,-0.1668537 0.425647,-0.1668537 0.224741,0 0.408621,0.1123709 0.183879,0.1123708 0.292845,0.3064658 0.108965,0.194095 0.108965,0.4086211 l 0,0.7253024 q -0.316681,0 -0.650388,-0.1055604 Q 72.038278,8.8806049 71.820347,8.6592685 71.602415,8.4379321 71.602415,8.1144403 Z m -0.565259,0 q 0,0.4154315 0.326897,0.6742249 0.326897,0.2621985 0.78319,0.367759 0.459699,0.1089656 0.871725,0.1089656 l 0,0.2860348 q 0,0.2009053 -0.08853,0.38819 -0.08854,0.1906894 -0.255388,0.3098714 -0.166854,0.122586 -0.367759,0.122586 -0.463104,0 -0.704872,-0.207716 0.132802,0 0.217932,-0.102155 0.08853,-0.09875 0.08853,-0.231552 0,-0.1396122 -0.09875,-0.2383623 -0.09875,-0.09875 -0.234957,-0.09875 -0.139612,0 -0.238362,0.09875 -0.09875,0.09875 -0.09875,0.2383623 0,0.367759 0.333707,0.544828 0.333707,0.180474 0.735518,0.180474 0.282629,0 0.568664,-0.122586 0.286035,-0.119181 0.466509,-0.343923 0.18388,-0.2247413 0.18388,-0.5243967 l 0,-1.5697861 q 0,-0.136207 0.05789,-0.251983 0.05789,-0.1123708 0.180474,-0.1123708 0.115776,0 0.170259,0.115776 0.05789,0.1157759 0.05789,0.2485778 l 0,0.446078 0.20431,0 0,-0.446078 q 0,-0.1566381 -0.08172,-0.2996555 -0.08172,-0.1396122 -0.221336,-0.2247416 -0.136207,-0.081724 -0.296251,-0.081724 -0.20431,0 -0.354138,0.1566381 -0.146422,0.1600432 -0.163448,0.3779745 -0.129397,-0.2621985 -0.38138,-0.4188366 -0.251983,-0.153233 -0.538018,-0.153233 -0.265604,0 -0.524397,0.078319 -0.255388,0.078319 -0.429052,0.2451727 -0.170259,0.1702588 -0.170259,0.4392676 z" /><path
       id="path3421"
       style="font-style:normal;font-variant:normal;font-weight:normal;font-stretch:normal;font-size:medium;font-family:cmr10;-inkscape-font-specification:cmr10;writing-mode:lr-tb;fill:#000000;fill-opacity:1;fill-rule:nonzero;stroke:none"
       d="m 67.348371,8.0361213 q 0.119181,-0.2281468 0.316681,-0.3643538 0.200906,-0.1362071 0.435863,-0.1362071 0.28944,0 0.531207,0.1668537 0.241768,0.1668536 0.360949,0.4324573 l 0,1.6719414 q -0.08172,0.1532329 -0.207716,0.2724142 -0.122586,0.122586 -0.279224,0.187285 -0.153233,0.0647 -0.326897,0.0647 -0.364354,0 -0.58569,-0.207716 -0.221337,-0.2043107 -0.309871,-0.5243973 -0.08854,-0.3200865 -0.08854,-0.6708196 0,-0.2792244 0.02724,-0.4869402 0.03065,-0.2077157 0.125992,-0.4052159 z m 0.711682,-0.6844404 q -0.412027,0 -0.752544,0.2213365 -0.340518,0.2247416 -0.531208,0.5890954 -0.187284,0.3643538 -0.187284,0.7729749 0,0.4222418 0.20431,0.7831905 0.207716,0.3643538 0.561854,0.5788798 0.354139,0.214526 0.779786,0.214526 0.255388,0 0.483535,-0.108966 0.228146,-0.10556 0.395,-0.29625 l 0,1.450605 q 0,0.187285 -0.05789,0.269009 -0.05448,0.08513 -0.160043,0.102155 -0.102156,0.02043 -0.323492,0.02043 l 0,0.245173 1.031768,0.07491 0,-4.2053923 q 0,-0.1838795 0.05448,-0.2690089 0.05789,-0.081724 0.160043,-0.1021553 0.105561,-0.017026 0.326897,-0.017026 l 0,-0.2451726 -1.052199,-0.078319 0,0.4392677 Q 68.812592,7.5832329 68.564014,7.4674569 68.315436,7.3516809 68.060048,7.3516809 Z" /><path
       style="font-style:normal;font-variant:normal;font-weight:normal;font-stretch:normal;font-size:medium;font-family:cmr10;-inkscape-font-specification:cmr10;writing-mode:lr-tb;fill:#000000;fill-opacity:1;fill-rule:nonzero;stroke:none"
       d="m 62.164712,7.43 0,0.2451727 q 0.238362,0 0.391595,0.037457 0.153233,0.037457 0.153233,0.1838794 l 0,1.9034934 q 0,0.1872847 -0.05789,0.2690085 -0.05448,0.08513 -0.160043,0.102156 -0.105561,0.02043 -0.326897,0.02043 l 0,0.245172 1.011337,0.07491 0,-0.6810348 q 0.139612,0.2996558 0.412026,0.4903448 0.275819,0.19069 0.599311,0.19069 0.483535,0 0.725303,-0.231552 0.245172,-0.231552 0.245172,-0.7082762 l 0,-1.6753466 q 0,-0.1464225 0.153233,-0.1838794 0.153233,-0.037457 0.391595,-0.037457 l 0,-0.2451727 -1.597027,0 0,0.2451727 q 0.238362,0 0.391595,0.037457 0.153233,0.037457 0.153233,0.1838794 l 0,1.6549156 q 0,0.3405176 -0.09875,0.5584482 -0.09875,0.221337 -0.405216,0.221337 -0.405216,0 -0.667414,-0.323492 -0.258794,-0.3234914 -0.258794,-0.7355177 l 0,-1.3756911 q 0,-0.1464225 0.153233,-0.1838794 0.153233,-0.037457 0.38819,-0.037457 l 2e-6,-0.2451728 -1.597027,0 z"
       id="path3419" /><path
       id="path3415"
       style="font-style:normal;font-variant:normal;font-weight:normal;font-stretch:normal;font-size:medium;font-family:cmr10;-inkscape-font-specification:cmr10;writing-mode:lr-tb;fill:#000000;fill-opacity:1;fill-rule:nonzero;stroke:none"
       d="m 59.225436,9.2143123 1.590217,0 q 0,0.2621985 -0.07491,0.5312074 -0.07151,0.2690093 -0.241768,0.4460783 -0.170258,0.180474 -0.446078,0.180474 -0.395,0 -0.612931,-0.371164 Q 59.22544,9.6331488 59.22544,9.2143122 Z M 60.151643,7.351681 q -0.425647,0 -0.78319,0.2213365 -0.354138,0.2247416 -0.558449,0.5959058 -0.200905,0.3745693 -0.200905,0.7900008 0,0.4086211 0.183879,0.7763801 0.187285,0.3677588 0.517587,0.5925008 0.333707,0.228146 0.742328,0.228146 0.320087,0 0.555044,-0.108965 0.238362,-0.105561 0.391595,-0.29625 0.153233,-0.1906902 0.231552,-0.4494836 0.07832,-0.2587934 0.07832,-0.5686644 0,-0.09194 -0.07151,-0.09194 l -2.01927,0 0,-0.074914 q 0,-0.5788799 0.231552,-0.9943113 0.234957,-0.4154315 0.76276,-0.4154315 0.214526,0 0.395,0.095345 0.18388,0.095345 0.316681,0.2656037 0.136207,0.1702588 0.18388,0.3643539 0.0068,0.023836 0.02384,0.040862 0.02043,0.020431 0.04427,0.020431 l 0.06129,0 q 0.07151,0 0.07151,-0.088535 Q 61.210657,7.8590517 60.88376,7.6036636 60.556863,7.3516805 60.151647,7.3516805 Z" /><path
       style="font-style:normal;font-variant:normal;font-weight:normal;font-stretch:normal;font-size:medium;font-family:cmr10;-inkscape-font-specification:cmr10;writing-mode:lr-tb;fill:#000000;fill-opacity:1;fill-rule:nonzero;stroke:none"
       d="m 56.374203,7.43 0,0.2451727 q 0.238362,0 0.391595,0.037457 0.153233,0.037457 0.153233,0.1838794 l 0,3.6605639 q 0,0.187285 -0.05789,0.269009 -0.05448,0.08513 -0.160043,0.102155 -0.105561,0.02043 -0.326897,0.02043 l 0,0.245173 1.035173,0.07491 0,-4.3722459 q 0,-0.1464225 0.153233,-0.1838794 0.153233,-0.037457 0.38819,-0.037457 l 2e-6,-0.2451727 -1.576596,0 z"
       id="path3413" /><path
       id="path3409"
       style="font-style:normal;font-variant:normal;font-weight:normal;font-stretch:normal;font-size:medium;font-family:cmr10;-inkscape-font-specification:cmr10;writing-mode:lr-tb;fill:#000000;fill-opacity:1;fill-rule:nonzero;stroke:none"
       d="m 53.032581,8.1144403 q 0,-0.2451726 0.180474,-0.4120262 0.180475,-0.1668537 0.425647,-0.1668537 0.224742,0 0.408622,0.1123709 0.183879,0.1123708 0.292845,0.3064658 0.108965,0.194095 0.108965,0.4086211 l 0,0.7253024 q -0.316681,0 -0.650388,-0.1055604 Q 53.468444,8.8806049 53.250512,8.6592685 53.032581,8.4379321 53.032581,8.1144403 Z m -0.565259,0 q 0,0.4154315 0.326897,0.6742249 0.326897,0.2621985 0.78319,0.367759 0.459699,0.1089656 0.871725,0.1089656 l 0,0.2860348 q 0,0.2009053 -0.08854,0.38819 -0.08854,0.1906894 -0.255388,0.3098714 -0.166853,0.122586 -0.367759,0.122586 -0.463104,0 -0.704871,-0.207716 0.132802,0 0.217931,-0.102155 0.08853,-0.09875 0.08853,-0.231552 0,-0.1396122 -0.09875,-0.2383623 -0.09875,-0.09875 -0.234957,-0.09875 -0.139612,0 -0.238362,0.09875 -0.09875,0.09875 -0.09875,0.2383623 0,0.367759 0.333707,0.544828 0.333707,0.180474 0.735518,0.180474 0.282629,0 0.568664,-0.122586 0.286035,-0.119181 0.466509,-0.343923 0.18388,-0.2247413 0.18388,-0.5243967 l 0,-1.5697861 q 0,-0.136207 0.05789,-0.251983 0.05789,-0.1123708 0.180474,-0.1123708 0.115776,0 0.170259,0.115776 0.05789,0.1157759 0.05789,0.2485778 l 0,0.446078 0.20431,0 0,-0.446078 q 0,-0.1566381 -0.08172,-0.2996555 -0.08172,-0.1396122 -0.221336,-0.2247416 -0.136207,-0.081724 -0.29625,-0.081724 -0.204311,0 -0.354139,0.1566381 -0.146426,0.1600432 -0.163452,0.3779745 -0.129396,-0.2621985 -0.381379,-0.4188366 -0.251983,-0.153233 -0.538018,-0.153233 -0.265604,0 -0.524397,0.078319 -0.255388,0.078319 -0.429052,0.2451727 -0.170259,0.1702588 -0.170259,0.4392676 z" /><path
       style="font-style:normal;font-variant:normal;font-weight:normal;font-stretch:normal;font-size:medium;font-family:cmr10;-inkscape-font-specification:cmr10;writing-mode:lr-tb;fill:#000000;fill-opacity:1;fill-rule:nonzero;stroke:none"
       d="m 50.382744,7.3516809 q -0.422242,0 -0.766165,0.2179313 -0.343922,0.2213364 -0.541423,0.5856903 -0.1975,0.367759 -0.1975,0.7797852 0,0.4120263 0.194095,0.7900008 0.197501,0.3779745 0.541423,0.6027165 0.347328,0.228146 0.76957,0.228146 0.408621,0 0.742328,-0.160043 0.337113,-0.160043 0.337113,-0.5243969 0,-0.136207 -0.09875,-0.2383623 -0.09535,-0.09875 -0.234957,-0.09875 -0.139613,0 -0.238363,0.09875 -0.09535,0.1021553 -0.09535,0.2383623 0,0.1225863 0.07832,0.2111209 0.07832,0.09194 0.194095,0.115776 -0.241767,0.153233 -0.67763,0.153233 -0.333707,0 -0.538017,-0.221337 -0.204311,-0.221336 -0.286035,-0.5482328 -0.08172,-0.3268969 -0.08172,-0.6469835 0,-0.3371124 0.09875,-0.6537937 0.102155,-0.3132762 0.323491,-0.5209919 0.224742,-0.2043106 0.561854,-0.2043106 0.330302,0 0.561854,0.2009054 0.231552,0.2043105 0.316682,0.5312074 0,0.040862 0.05448,0.040862 l 0.08513,0 q 0.02043,0 0.03746,-0.020431 0.01703,-0.017026 0.01703,-0.040862 l 0,-0.020431 Q 51.434943,7.8352159 51.121667,7.5934484 50.808391,7.3516809 50.382744,7.3516809 Z"
       id="path3407" /><path
       style="font-style:normal;font-variant:normal;font-weight:normal;font-stretch:normal;font-size:medium;font-family:cmr10;-inkscape-font-specification:cmr10;writing-mode:lr-tb;fill:#000000;fill-opacity:1;fill-rule:nonzero;stroke:none"
       d="m 47.695287,5.7001707 q -0.38819,0.3064658 -0.67082,0.7048714 -0.279224,0.3950004 -0.459699,0.8444836 -0.177069,0.4494832 -0.265603,0.9398285 -0.08854,0.4903453 -0.08854,0.9840958 0,0.5005609 0.08854,0.990906 0.08853,0.490346 0.269008,0.943234 0.18388,0.452888 0.46651,0.847889 0.282629,0.395 0.660604,0.69125 0,0.01362 0.03405,0.01362 l 0.0647,0 q 0.02043,0 0.03746,-0.02043 0.01703,-0.01703 0.01703,-0.04086 0,-0.03065 -0.01362,-0.04427 -0.340518,-0.333707 -0.568665,-0.715087 -0.224741,-0.381379 -0.364353,-0.813837 -0.136208,-0.429052 -0.197501,-0.892156 -0.06129,-0.4596984 -0.06129,-0.9602593 0,-2.2167695 1.185001,-3.3677189 0.02043,-0.020431 0.02043,-0.057888 0,-0.017026 -0.02043,-0.037457 -0.01703,-0.023836 -0.03405,-0.023836 l -0.0647,0 q -0.03405,0 -0.03405,0.013621 z"
       id="path3405" /><path
       style="font-style:normal;font-variant:normal;font-weight:normal;font-stretch:normal;font-size:medium;font-family:cmr10;-inkscape-font-specification:cmr10;writing-mode:lr-tb;fill:#000000;fill-opacity:1;fill-rule:nonzero;stroke:none"
       d="m 38.090467,3.141 0,0.3502477 q 1.02642,0 1.02642,0.3161957 l 0,5.4726195 q 0,0.3161958 -1.02642,0.3161958 l 0,0.3502477 2.981969,0 0,-0.3502477 q -1.02642,0 -1.02642,-0.3161958 l 0,-3.2300616 3.079261,2.9576468 q 0.126478,0.1362074 0.126478,0.2724148 0,0.1556657 -0.136207,0.2334985 -0.131343,0.082697 -0.301603,0.082697 l 0,0.3502477 2.164726,0 0,-0.3502477 q -0.817245,0 -1.435043,-0.5886106 L 41.777796,7.3147842 43.961979,4.079858 q 0.267551,-0.3940286 0.466997,-0.4913196 0.204311,-0.097291 0.685902,-0.097291 l 0,-0.3502477 -2.607399,0 0,0.3502477 q 0.238363,0 0.398893,0.048646 0.165395,0.048645 0.165395,0.2286338 0,0.1216138 -0.126479,0.3113313 l -1.78529,2.6463155 -1.113982,-1.0750657 0,-1.8436647 q 0,-0.3161957 1.02642,-0.3161957 l 0,-0.3502474 -2.981969,0 z"
       id="path3403" /><path
       id="path3399"
       style="font-style:normal;font-variant:normal;font-weight:normal;font-stretch:normal;font-size:medium;font-family:cmr10;-inkscape-font-specification:cmr10;writing-mode:lr-tb;fill:#000000;fill-opacity:1;fill-rule:nonzero;stroke:none"
       d="m 33.907578,3.5644828 2.184183,0 -1.094523,3.1814161 -1.08966,-3.1814161 z M 31.879061,0.996 l 0,0.3502477 q 0.890212,0 1.094523,0.5886106 l 2.091757,6.0855529 q 0.02919,0.1070201 0.16053,0.1070201 l 0.126479,0 q 0.131343,0 0.16053,-0.1070201 l 2.184183,-6.3579677 q 0.09243,-0.2091757 0.350248,-0.2626858 0.262686,-0.05351 0.65185,-0.05351 l 0,-0.3502477 -2.777659,0 0,0.3502477 q 0.826974,0 0.826974,0.2675503 l 0,0.048645 -0.539965,1.5566562 -2.417682,0 -0.447539,-1.2842414 q -0.0097,-0.034052 -0.0097,-0.1021556 0,-0.2480921 0.233499,-0.3697058 0.238363,-0.1167492 0.510777,-0.1167492 l 0,-0.3502477 -2.198776,0 z" /><path
       style="font-style:normal;font-variant:normal;font-weight:normal;font-stretch:normal;font-size:medium;font-family:cmr10;-inkscape-font-specification:cmr10;writing-mode:lr-tb;fill:#000000;fill-opacity:1;fill-rule:nonzero;stroke:none"
       d="m 27.705814,3.141 0,0.3502477 q 0.501048,0 0.97291,0.05351 0.471861,0.058374 0.471861,0.2626857 l 0,5.4726195 q 0,0.2140403 -0.121614,0.2626858 -0.116749,0.05351 -0.384299,0.05351 l -0.418352,0 q -0.822109,0 -1.167492,-0.3599767 Q 26.87884,9.0562936 26.801007,8.6574004 26.723177,8.2633718 26.669664,7.6650321 l -0.287008,0 0.189717,2.2814743 6.085553,0 0.189718,-2.2814743 -0.291873,0 q -0.05837,0.6421207 -0.131343,1.0166911 -0.0681,0.379435 -0.252957,0.5545588 -0.350248,0.3599767 -1.167492,0.3599767 l -0.418351,0 q -0.179989,0 -0.282144,-0.014594 -0.09729,-0.014594 -0.160531,-0.087562 -0.06324,-0.068104 -0.06324,-0.2140403 l 0,-5.4726195 q 0,-0.2043111 0.471862,-0.2626857 0.471861,-0.05351 0.968045,-0.05351 l 1e-6,-0.3502472 -3.813807,0 z"
       id="path3397" /><path
       style="font-style:normal;font-variant:normal;font-weight:normal;font-stretch:normal;font-size:medium;font-family:cmr10;-inkscape-font-specification:cmr10;writing-mode:lr-tb;fill:#000000;fill-opacity:1;fill-rule:nonzero;stroke:none"
       d="m 22.814029,4.9846647 0,0.6177979 2.636587,0 0,-0.6177979 -2.636587,0 z"
       id="path3395" /><path
       style="font-style:normal;font-variant:normal;font-weight:normal;font-stretch:normal;font-size:medium;font-family:cmr10;-inkscape-font-specification:cmr10;writing-mode:lr-tb;fill:#000000;fill-opacity:1;fill-rule:nonzero;stroke:none"
       d="m 17.280443,3.141 q -0.10702,0 -0.10702,0.1118847 l 0,0.1362074 q 0,0.038916 0.01946,0.058375 l 3.872182,6.148792 -1.400991,0 q -0.700495,0 -1.157763,-0.1848529 Q 18.053908,9.2265533 17.82041,8.8033374 17.591776,8.3801215 17.591776,7.6650325 l -0.291873,0 0.111884,2.2814743 4.611594,0 q 0.111885,0 0.111885,-0.1118847 l 0,-0.1167492 q 0,-0.043781 -0.0097,-0.063239 l -3.877047,-6.1341984 1.46423,0 q 0.530236,0 0.953452,0.097291 0.423216,0.097291 0.710224,0.379435 0.199447,0.1994466 0.311331,0.5010487 0.111885,0.3016022 0.145937,0.5837461 0.03405,0.282144 0.0681,0.7588699 l 0.291873,0 -0.170259,-2.6998258 -4.742937,0 z"
       id="path3393" /><path
       style="font-style:normal;font-variant:normal;font-weight:normal;font-stretch:normal;font-size:medium;font-family:cmr10;-inkscape-font-specification:cmr10;writing-mode:lr-tb;fill:#000000;fill-opacity:1;fill-rule:nonzero;stroke:none"
       d="m 11.489236,3.3209884 q 0,0.058375 0.0097,0.087562 l 1.444772,5.759628 q 0.03892,0.1702592 0.04865,0.2675503 0,0.1605301 -0.646986,0.1605301 -0.102155,0 -0.102155,0.1313429 0.0049,0.024323 0.01946,0.087562 0.01946,0.063239 0.04378,0.097291 0.02919,0.034052 0.07783,0.034052 l 1.342616,0.1070203 0.02919,0 q 0,-0.0097 0.03405,-0.02919 0.03405,-0.01459 0.03892,-0.01946 0.01946,-0.048646 0.01946,-0.077833 L 12.802645,5.7629934 q 0.359976,0.1508011 0.904806,0.715089 0.549694,0.5691524 0.856161,0.8172445 0.311331,0.248092 0.778328,0.248092 0.277279,0 0.471861,-0.1897174 0.194582,-0.1897175 0.194582,-0.4669969 0,-0.1751238 -0.07297,-0.3259249 -0.07297,-0.1459365 -0.204311,-0.238363 -0.131343,-0.092426 -0.306466,-0.092426 -0.160531,0 -0.272415,0.097291 -0.10702,0.1021555 -0.10702,0.2626857 0,0.238363 0.165394,0.3988932 0.17026,0.1653947 0.408623,0.1653947 -0.09729,0.1313429 -0.296738,0.1313429 -0.296737,0 -0.574017,-0.1702593 Q 14.476048,6.9450796 14.154988,6.6240193 13.838792,6.3078235 13.576106,6.0402732 13.313421,5.7775875 13.089651,5.64138 q 0.588611,-0.068104 1.021556,-0.3113312 0.432945,-0.238363 0.432945,-0.7345472 0,-0.1021555 -0.03892,-0.2578211 -0.08756,-0.3745704 -0.08756,-0.5983398 0,-0.4475386 0.306467,-0.4475386 0.359976,0 0.544829,0.3940286 0.189718,0.3940286 0.311332,0.9194 0.01946,0.058375 0.0827,0.058375 l 0.116749,0 q 0.03892,0 0.06324,-0.024323 0.02919,-0.024323 0.02919,-0.063239 0,-0.00973 -0.0097,-0.029187 -0.374571,-1.5177398 -1.157763,-1.5177398 -0.282144,0 -0.501049,0.1313429 -0.21404,0.1313429 -0.33079,0.3551122 -0.116749,0.2286339 -0.116749,0.5107778 0,0.1605302 0.04378,0.3307895 0.02919,0.1167492 0.02919,0.2189047 0,0.3842995 -0.340518,0.5837461 -0.340517,0.1994451 -0.778327,0.2432261 L 12.20434,3.369634 q -0.03892,-0.1508011 -0.150801,-0.2432275 -0.111885,-0.097291 -0.257821,-0.097291 -0.126479,0 -0.218905,0.087562 -0.08756,0.082697 -0.08756,0.2043111 z"
       id="path3391" /><path
       style="font-style:normal;font-variant:normal;font-weight:normal;font-stretch:normal;font-size:medium;font-family:cmr10;-inkscape-font-specification:cmr10;writing-mode:lr-tb;fill:#000000;fill-opacity:1;fill-rule:nonzero;stroke:none"
       d="m 8.497456,3.141 0,0.3502477 q 0.340519,0 0.559424,0.05351 0.218905,0.05351 0.218905,0.2626857 l 0,2.7192839 q 0,0.3842995 -0.150802,0.4718613 -0.145936,0.087562 -0.583746,0.087562 l 0,0.3502476 1.435043,0.1070201 0,-3.7359749 q 0,-0.2091757 0.189717,-0.2626858 0.189718,-0.05351 0.505914,-0.05351 l 0,-0.3502478 -2.174455,0 z"
       id="path3389" /><path
       style="font-style:normal;font-variant:normal;font-weight:normal;font-stretch:normal;font-size:medium;font-family:cmr10;-inkscape-font-specification:cmr10;writing-mode:lr-tb;fill:#000000;fill-opacity:1;fill-rule:nonzero;stroke:none"
       d="m 8.920672,9.2557402 q 0,0.2189048 0.165395,0.3842995 0.165395,0.1653947 0.379435,0.1653947 0.141072,0 0.272415,-0.072968 0.131343,-0.072968 0.204311,-0.2043111 0.07297,-0.1313428 0.07297,-0.2724148 0,-0.2140402 -0.165395,-0.379435 -0.165395,-0.1653947 -0.384299,-0.1653947 -0.214041,0 -0.379435,0.1653947 Q 8.920674,9.0417 8.920674,9.2557402 Z"
       id="path3387" /><path
       style="font-style:normal;font-variant:normal;font-weight:normal;font-stretch:normal;font-size:medium;font-family:cmr10;-inkscape-font-specification:cmr10;writing-mode:lr-tb;fill:#000000;fill-opacity:1;fill-rule:nonzero;stroke:none"
       d="m 2.679135,3.141 0,0.3502477 q 0.501048,0 0.97291,0.05351 0.471861,0.058374 0.471861,0.2626857 l 0,5.4726195 q 0,0.2140403 -0.121614,0.2626858 -0.116749,0.05351 -0.384299,0.05351 l -0.418352,0 q -0.822109,0 -1.167492,-0.3599767 Q 1.852161,9.0562936 1.774328,8.6574004 1.696498,8.2633718 1.642985,7.6650321 l -0.287008,0 0.189717,2.2814743 6.085553,0 0.189718,-2.2814743 -0.291874,0 Q 7.470721,8.3071528 7.397749,8.6817232 7.329649,9.0611582 7.144792,9.236282 6.794544,9.5962587 5.9773,9.5962587 l -0.418352,0 q -0.179988,0 -0.282143,-0.014594 -0.09729,-0.014594 -0.160531,-0.087562 -0.06324,-0.068104 -0.06324,-0.2140403 l 0,-5.4726195 q 0,-0.2043111 0.471862,-0.2626857 0.471861,-0.05351 0.968045,-0.05351 l 0,-0.3502472 -3.813807,0 z"
       id="path3381" /></g></svg>